<?xml version="1.0" encoding="UTF-8"?>
<!DOCTYPE svg PUBLIC "-//W3C//DTD SVG 1.1//EN" "http://www.w3.org/Graphics/SVG/1.1/DTD/svg11.dtd">
<!-- Creator: CorelDRAW -->
<svg xmlns="http://www.w3.org/2000/svg" xml:space="preserve" width="4.4313mm" height="5.246mm" version="1.1" style="shape-rendering:geometricPrecision; text-rendering:geometricPrecision; image-rendering:optimizeQuality; fill-rule:evenodd; clip-rule:evenodd"
viewBox="0 0 22.83 27.03"
 xmlns:xlink="http://www.w3.org/1999/xlink"
 xmlns:xodm="http://www.corel.com/coreldraw/odm/2003">
 <defs>
  <style type="text/css">
   <![CDATA[
    .fil0 {fill:black}
    .fil1 {fill:white}
   ]]>
  </style>
 </defs>
 <g id="Camada_x0020_1">
  <metadata id="CorelCorpID_0Corel-Layer"/>
  <g id="_2206299038960">
   <path class="fil0" d="M9.73 3.64l-0.24 0.09c-0.09,0.02 -0.17,0.04 -0.26,0.06 -1.71,0.42 -3.29,1.38 -4.23,2.86 -0.84,1.33 -0.74,2.79 -0.83,4.35 -0.04,0.79 -0.13,1.58 -0.23,2.37 -0.87,7.03 -3.51,7.32 -3.83,7.78 -0.22,0.31 -0.1,0.76 0.12,0.99 0.15,0.15 0.22,0.15 0.43,0.21 0.17,0.05 0.32,0.09 0.5,0.14 6.83,1.94 13.63,1.87 20.47,0.01 0.31,-0.08 0.73,-0.13 0.94,-0.34 0.23,-0.22 0.36,-0.63 0.15,-0.98 -0.09,-0.15 -0.2,-0.18 -0.37,-0.28 -1.18,-0.7 -1.93,-1.77 -2.53,-3.32 -0.67,-1.71 -1.07,-4.59 -1.18,-6.54 -0.13,-2.42 0.02,-4.05 -2.03,-5.76 -0.82,-0.69 -1.91,-1.21 -3,-1.49 -0.1,-0.02 -0.18,-0.04 -0.26,-0.06l-0.28 -0.09c0.49,-0.73 0.76,-1.49 0.29,-2.43 -0.8,-1.61 -3.14,-1.61 -3.95,0 -0.18,0.36 -0.28,0.85 -0.21,1.32 0.09,0.57 0.25,0.73 0.5,1.11z"/>
   <path class="fil0" d="M13.89 24.51c-1.7,0.09 -3.26,0.08 -4.95,0 0.12,3.38 4.85,3.34 4.95,-0z"/>
   <path class="fil1" d="M11.13 1.33c-1.18,0.43 -0.55,2.09 0.55,1.75 1.21,-0.38 0.55,-2.14 -0.55,-1.75z"/>
  </g>
 </g>
</svg>
