<?xml version="1.0" encoding="UTF-8"?>
<!DOCTYPE svg PUBLIC "-//W3C//DTD SVG 1.1//EN" "http://www.w3.org/Graphics/SVG/1.1/DTD/svg11.dtd">
<!-- Creator: CorelDRAW -->
<svg xmlns="http://www.w3.org/2000/svg" xml:space="preserve" width="6.019mm" height="6.2171mm" version="1.1" style="shape-rendering:geometricPrecision; text-rendering:geometricPrecision; image-rendering:optimizeQuality; fill-rule:evenodd; clip-rule:evenodd"
viewBox="0 0 41.36 42.72"
 xmlns:xlink="http://www.w3.org/1999/xlink"
 xmlns:xodm="http://www.corel.com/coreldraw/odm/2003">
 <defs>
  <style type="text/css">
   <![CDATA[
    .fil0 {fill:black}
    .fil1 {fill:#F4F4F4}
   ]]>
  </style>
 </defs>
 <g id="Camada_x0020_1">
  <metadata id="CorelCorpID_0Corel-Layer"/>
  <g id="_2206849651792">
   <path class="fil0" d="M8.68 4.23c-1.19,0.21 -2.77,-0.11 -4.08,0.14 -1.2,0.24 -2.1,0.82 -2.77,1.46 -1.91,1.81 -1.79,3.43 -1.79,6.64 0,0.92 -0.11,24.05 0.06,25.28 0.29,2.19 1.89,4 3.83,4.62 1.65,0.52 6.19,0.29 8.19,0.29l16.91 0c2,0 6.6,0.23 8.24,-0.24 1.95,-0.55 3.61,-2.3 3.97,-4.49 0.21,-1.27 0.08,-24.32 0.08,-25.28 0,-3.13 0.13,-4.96 -1.69,-6.76 -1.93,-1.91 -3.73,-1.53 -6.92,-1.64 -0.29,-1.33 0.65,-4.26 -1.47,-4.26 -2.16,0 -1.14,2.89 -1.48,4.26l-18.18 0.01c-0.29,-1.46 0.64,-4.17 -1.4,-4.26 -2.07,-0.09 -1.36,2.64 -1.5,4.23z"/>
   <path class="fil1" d="M6.16 39.83l29.21 0c2.03,-0 3.11,-1.18 3.11,-3.24l-0 -20.95 -35.6 0 0 20.56c-0,2.24 0.75,3.62 3.28,3.62z"/>
   <path class="fil1" d="M2.87 12.8l35.6 0c0.02,-1.79 0.25,-3.88 -0.85,-4.9 -1.18,-1.1 -3.06,-0.79 -4.95,-0.79 -0.14,1.55 0.51,4.04 -1.45,4.02 -1.93,-0.01 -1.34,-2.57 -1.44,-4.02l-18.25 -0c-0.02,1.54 0.46,4.05 -1.45,4.02 -1.97,-0.03 -1.25,-2.53 -1.43,-4.02 -1.81,-0 -3.76,-0.31 -4.89,0.77 -1.22,1.17 -0.88,2.93 -0.9,4.92z"/>
   <path class="fil0" d="M5.73 22.7c0.59,0.15 3.45,0.06 4.27,0.05l-0.01 -2.85 -4.24 0.01 -0.02 2.78z"/>
   <polygon class="fil0" points="5.73,34.13 9.99,34.13 10,31.3 5.74,31.29 "/>
   <polygon class="fil0" points="5.73,28.44 9.99,28.44 10,25.61 5.74,25.6 "/>
   <polygon class="fil0" points="14.27,34.13 18.54,34.13 18.54,31.3 14.28,31.29 "/>
   <polygon class="fil0" points="14.27,28.44 18.54,28.44 18.54,25.62 14.28,25.6 "/>
   <polygon class="fil0" points="22.82,28.44 27.08,28.44 27.09,25.63 22.82,25.6 "/>
   <polygon class="fil0" points="31.36,28.4 31.71,28.45 35.08,28.44 35.63,28.42 35.63,25.64 31.36,25.6 "/>
   <polygon class="fil0" points="22.82,34.12 27.05,34.14 27.09,31.31 22.81,31.3 "/>
   <polygon class="fil0" points="31.35,22.73 35.63,22.75 35.62,19.92 31.39,19.91 "/>
   <polygon class="fil0" points="31.36,34.13 35.59,34.13 35.63,31.32 31.37,31.29 "/>
   <polygon class="fil0" points="14.27,22.71 18.54,22.75 18.53,19.91 14.29,19.91 "/>
   <polygon class="fil0" points="22.81,22.71 27.08,22.75 27.08,19.91 22.84,19.91 "/>
  </g>
 </g>
</svg>
