<?xml version="1.0" encoding="UTF-8"?>
<!DOCTYPE svg PUBLIC "-//W3C//DTD SVG 1.1//EN" "http://www.w3.org/Graphics/SVG/1.1/DTD/svg11.dtd">
<!-- Creator: CorelDRAW -->
<svg xmlns="http://www.w3.org/2000/svg" xml:space="preserve" width="6.0938mm" height="6.5599mm" version="1.1" style="shape-rendering:geometricPrecision; text-rendering:geometricPrecision; image-rendering:optimizeQuality; fill-rule:evenodd; clip-rule:evenodd"
viewBox="0 0 42.36 45.6"
 xmlns:xlink="http://www.w3.org/1999/xlink"
 xmlns:xodm="http://www.corel.com/coreldraw/odm/2003">
 <defs>
  <style type="text/css">
   <![CDATA[
    .fil0 {fill:#231F20}
    .fil2 {fill:#87898B}
    .fil1 {fill:white}
   ]]>
  </style>
 </defs>
 <g id="Camada_x0020_1">
  <metadata id="CorelCorpID_0Corel-Layer"/>
  <g id="_2206299044816">
   <path class="fil0" d="M20.73 41.98c-3.85,-0.61 -16.68,0.42 -19.17,-0.29 -0.44,-3.23 -0.02,-24.52 -0.09,-31.52 -0.01,-1.31 -0.13,-1.23 0.27,-1.86l5.44 -0.02 0.07 2.2c1.62,0.33 13.62,0.3 15.48,0.05l0.16 -2.25 5.54 0.02 -0 16.86c-2.36,-0.62 -3.42,-1.82 -6.62,-0.8 -5.32,1.71 -7.61,8.2 -1,14.94 1.27,1.29 7.47,7.06 9.24,6.19 2.09,-1.03 4.98,-3.72 6.82,-5.27 0.79,-0.67 1.67,-1.08 1.47,-2.36 -1.33,-0.42 -1.51,0.41 -2.39,1.17 -2.06,1.79 -4.18,3.72 -6.62,5.05 -3.11,-1.62 -9.42,-6.89 -10.66,-10.39 -1.71,-4.84 2.37,-9.38 7.34,-7.88 1.87,0.56 2.06,1.46 3.32,2.07 0.65,-0.32 4.25,-4.22 8.4,-1.45 2.91,1.94 3.01,4.74 1.83,8.4l-3.65 0.01c-0.37,-0.9 -0.81,-1.9 -1.76,-2.22 -0.92,0.49 -1.74,2.04 -2.05,2.82 -0.69,-0.64 -1.02,-1.98 -1.41,-3.05 -0.84,-2.3 -0.54,-2.35 -1.62,-2.71 -1.08,0.64 -2.02,3.94 -2.33,5.16 -1.29,0 -2.8,-0.15 -3.77,0.28 -0.05,1.17 0.36,1.21 1.52,1.23 4.67,0.08 2.77,-0.14 4.67,-3.59 1.36,2.36 1.42,7.53 3.86,3.86 0.44,-0.66 0.71,-1.08 1.15,-1.63l0.54 0.62c0.74,0.84 0.31,0.75 2.94,0.72 1.26,-0.01 3.71,0.34 4.69,-0.34 0.18,-1.12 -0.26,-0.86 -1.09,-1.38 2.33,-5.14 -1.35,-10.51 -6.54,-10.59 -2.39,-0.04 -3.1,0.76 -4.73,1.34 -0.01,-3.56 0.46,-15.8 -0.18,-18.35 -1.16,-0.42 -5.24,-0.23 -6.91,-0.23 0,-3.92 -0.33,-2.48 -3.73,-2.87 -0.86,-2.33 -1.24,-4.02 -4.28,-3.92 -1.23,0.04 -2.19,0.66 -2.76,1.26 -2.57,2.66 1.47,2.67 -4.83,2.83l-0.1 2.71c-0.96,0 -6.45,-0.27 -6.9,0.35 -0.31,0.43 -0.44,35.08 0.13,35.69 0.74,0.8 14.93,0.36 16.6,0.36 2.22,0 4.01,0.42 3.96,-0.77 -0.05,-1.25 0.19,-0.1 -0.23,-0.44z"/>
   <path class="fil1" d="M8.7 5.53l0 3.61 12.66 0.02 0 -3.66c-3.33,0 -3.68,0.43 -3.89,-1.21 -0.22,-1.69 -0.45,-2.71 -2.36,-2.78 -1.79,-0.06 -2.37,1.05 -2.53,2.54 -0.13,1.26 0.17,1.38 -1.21,1.48 -0.75,0.05 -1.84,-0.03 -2.67,-0.01z"/>
   <path class="fil0" d="M5.36 16.6c0.5,1.44 3.02,0.87 4.4,0.87l13.44 0.02c1.15,-0.06 1.39,-0.02 1.47,-1.1 -1.08,-0.88 -13.89,-0.41 -17.06,-0.45 -2.54,-0.03 -1.88,0.33 -2.24,0.65z"/>
   <path class="fil2" d="M20.73 41.98c-1.13,-0.93 -7.49,-0.39 -9.37,-0.39 -3.21,0 -6.42,0 -9.62,0l0 -33.28c-0.4,0.62 -0.28,0.55 -0.27,1.86 0.07,7 -0.35,28.29 0.09,31.52 2.49,0.71 15.32,-0.31 19.17,0.29z"/>
   <path class="fil0" d="M5.36 23.31c0.48,1.41 1.86,0.87 5.2,0.87 3.22,0 4.99,0.54 5.48,-0.87 -0.85,-1.17 -5.55,-0.61 -8.16,-0.64 -1.65,-0.02 -1.46,-0.27 -2.51,0.64z"/>
   <path class="fil0" d="M5.36 30.01c0.43,1.3 1.33,0.88 2.78,0.87 1.36,-0.01 2.51,0.25 3.36,-0.44l0.01 -0.6c-0.76,-0.63 -3.47,-0.55 -4.73,-0.47 -1.62,0.1 -0.79,0.1 -1.42,0.64z"/>
  </g>
 </g>
</svg>
