<?xml version="1.0" encoding="UTF-8"?>
<!DOCTYPE svg PUBLIC "-//W3C//DTD SVG 1.1//EN" "http://www.w3.org/Graphics/SVG/1.1/DTD/svg11.dtd">
<!-- Creator: CorelDRAW -->
<svg xmlns="http://www.w3.org/2000/svg" xml:space="preserve" width="5.0192mm" height="5.0199mm" version="1.1" style="shape-rendering:geometricPrecision; text-rendering:geometricPrecision; image-rendering:optimizeQuality; fill-rule:evenodd; clip-rule:evenodd"
viewBox="0 0 29.09 29.1"
 xmlns:xlink="http://www.w3.org/1999/xlink"
 xmlns:xodm="http://www.corel.com/coreldraw/odm/2003">
 <defs>
  <style type="text/css">
   <![CDATA[
    .fil0 {fill:#020200}
    .fil2 {fill:#272725}
    .fil1 {fill:white}
   ]]>
  </style>
 </defs>
 <g id="Camada_x0020_1">
  <metadata id="CorelCorpID_0Corel-Layer"/>
  <g id="_2206846254688">
   <path class="fil0" d="M13.89 0.02c-7.84,0.37 -14.24,6.92 -13.88,15.21 0.34,7.8 6.98,14.23 15.21,13.85 7.81,-0.36 14.2,-6.95 13.85,-15.21 -0.33,-7.77 -6.97,-14.24 -15.18,-13.85z"/>
   <path class="fil1" d="M15.18 13.86c-0.05,-2.49 -0,-5.21 -0,-7.74 0,-0.45 0.04,-0.81 -0.24,-1.05 -0.26,-0.22 -0.72,-0.19 -0.93,0.04 -0.24,0.25 -0.19,0.65 -0.19,1.07l0 7.75c0,0.43 -0.07,0.82 0.2,1.1 0.27,0.27 0.63,0.21 1.07,0.21l7.75 0c0.44,0 0.84,0.07 1.11,-0.2 0.24,-0.23 0.28,-0.64 0.04,-0.93 -0.25,-0.3 -0.59,-0.24 -1.06,-0.24 -0.62,0 -7.47,0.03 -7.74,-0.01z"/>
   <path class="fil2" d="M5.88 24.52c-0.16,-0.14 -0.52,-0.24 -0.34,-0.63 0.12,-0.26 0.31,-0.47 0.07,-0.82l-0.08 0.07c-0.05,0.06 -0.02,0.02 -0.07,0.08 -0.15,0.2 -0.22,0.42 -0.07,0.64 -0.19,-0.1 -0.35,-0.18 -0.42,-0.42 -0.07,-0.27 0.05,-0.48 0.2,-0.62 0.6,-0.52 1.45,0.51 0.55,0.99 -0.25,0.13 -0.22,0.39 -0.04,0.55 0.23,0.2 0.34,0.14 0.56,-0.02 0.16,-0.11 0.29,-0.27 0.38,-0.51 0.38,-1.05 -0.88,-1.82 -1.68,-1.09 -0.75,0.69 -0.26,2.02 0.93,1.79z"/>
   <path class="fil2" d="M5.88 6.68c-0.16,-0.14 -0.52,-0.24 -0.34,-0.63 0.12,-0.26 0.31,-0.47 0.07,-0.82l-0.08 0.07c-0.05,0.06 -0.02,0.02 -0.07,0.08 -0.15,0.2 -0.22,0.42 -0.07,0.64 -0.19,-0.1 -0.35,-0.18 -0.42,-0.42 -0.07,-0.27 0.05,-0.48 0.2,-0.62 0.6,-0.52 1.45,0.51 0.55,0.99 -0.25,0.13 -0.22,0.39 -0.04,0.55 0.23,0.2 0.34,0.14 0.56,-0.02 0.16,-0.11 0.29,-0.27 0.38,-0.51 0.38,-1.05 -0.88,-1.82 -1.68,-1.09 -0.75,0.69 -0.26,2.02 0.93,1.79z"/>
   <path class="fil2" d="M23.72 6.68c-0.16,-0.14 -0.52,-0.24 -0.34,-0.63 0.12,-0.26 0.31,-0.47 0.07,-0.82l-0.03 0.03c-0.01,0.01 -0.04,0.04 -0.05,0.05 -0.18,0.2 -0.3,0.47 -0.14,0.72 -0.19,-0.1 -0.35,-0.18 -0.42,-0.42 -0.07,-0.27 0.05,-0.48 0.2,-0.62 0.6,-0.52 1.45,0.51 0.55,0.99 -0.25,0.13 -0.22,0.39 -0.04,0.55 0.23,0.2 0.34,0.14 0.56,-0.02 0.16,-0.11 0.29,-0.27 0.38,-0.51 0.38,-1.05 -0.88,-1.82 -1.68,-1.09 -0.75,0.69 -0.26,2.02 0.93,1.79z"/>
   <path class="fil2" d="M23.72 24.52c-0.16,-0.14 -0.52,-0.24 -0.34,-0.63 0.12,-0.26 0.31,-0.47 0.07,-0.82 -0.01,0 -0.01,0.01 -0.02,0.01l-0.06 0.06c-0.18,0.2 -0.3,0.47 -0.14,0.72 -0.19,-0.1 -0.35,-0.18 -0.42,-0.42 -0.07,-0.27 0.05,-0.48 0.2,-0.62 0.6,-0.52 1.45,0.51 0.55,0.99 -0.25,0.13 -0.22,0.39 -0.04,0.55 0.23,0.2 0.34,0.14 0.56,-0.02 0.16,-0.11 0.29,-0.27 0.38,-0.51 0.38,-1.05 -0.88,-1.82 -1.68,-1.09 -0.75,0.69 -0.26,2.02 0.93,1.79z"/>
   <path class="fil1" d="M25.81 7.71c-0.13,0.03 -1.54,0.8 -1.6,0.97 -0.09,0.26 0.13,0.49 0.38,0.41 0.09,-0.03 0.43,-0.24 0.53,-0.3 0.2,-0.11 0.99,-0.51 1.04,-0.68 0.07,-0.25 -0.12,-0.46 -0.36,-0.4z"/>
   <path class="fil1" d="M25.91 14.27c-0.16,0.07 -0.26,0.28 -0.13,0.47 0.11,0.16 0.37,0.12 0.61,0.12 0.23,0 1.23,0.03 1.37,-0.03 0.15,-0.07 0.24,-0.29 0.11,-0.45 -0.13,-0.16 -0.35,-0.13 -0.6,-0.13 -0.26,0 -1.2,-0.04 -1.37,0.03z"/>
   <path class="fil1" d="M8.34 3.16l-0.06 -0.08c-0.13,-0.19 -0.1,-0.08 -0.21,-0.19 -0.72,0.12 -0.27,0.6 0.19,1.39 0.08,0.14 0.22,0.41 0.29,0.51 0.12,0.15 0.42,0.14 0.52,-0.06 0.1,-0.2 -0.08,-0.42 -0.16,-0.56 -0.1,-0.17 -0.19,-0.34 -0.29,-0.51 -0.08,-0.14 -0.24,-0.37 -0.28,-0.51z"/>
   <path class="fil1" d="M14.45 1.18c-0.21,0.06 -0.22,0.25 -0.22,0.49 0,0.24 0,0.48 0,0.71 0,0.36 -0.13,1.14 0.42,0.97 0.29,-0.09 0.2,-0.75 0.2,-1.21 0,-0.35 0.11,-1.12 -0.4,-0.96z"/>
   <path class="fil1" d="M4.53 19.99c-0.13,0.03 -0.92,0.51 -1.09,0.61 -0.17,0.1 -0.45,0.21 -0.51,0.36 -0.09,0.24 0.09,0.48 0.34,0.43 0.05,-0.01 1.53,-0.8 1.6,-0.96 0.11,-0.25 -0.1,-0.49 -0.35,-0.44z"/>
   <path class="fil1" d="M26.19 21l-0.04 -0.06c-0.11,-0.15 -0.09,-0.08 -0.21,-0.18l-1 -0.57c-0.15,-0.09 -0.36,-0.27 -0.56,-0.18 -0.18,0.08 -0.26,0.37 -0.07,0.52 0.09,0.07 0.36,0.21 0.49,0.28 0.18,0.11 0.33,0.2 0.5,0.3 0.46,0.25 0.78,0.56 0.9,-0.11z"/>
   <path class="fil1" d="M20.72 25.88c0.07,0.06 0.11,0.15 0.14,0.24 0.2,0.06 0.44,0.11 0.52,-0.14 0.07,-0.19 -0.12,-0.41 -0.2,-0.55 -0.19,-0.33 -0.41,-0.69 -0.6,-1.04 -0.05,-0.1 -0.07,-0.16 -0.2,-0.19 -0.13,-0.03 -0.24,-0 -0.32,0.08 -0.18,0.2 -0.03,0.4 0.07,0.56l0.58 1.04z"/>
   <path class="fil1" d="M1.63 14.86l1.25 0c0.19,0 0.34,0.01 0.43,-0.12 0.09,-0.13 0.06,-0.32 -0.03,-0.41 -0.15,-0.15 -0.77,-0.09 -1.02,-0.09 -0.26,0 -0.83,-0.07 -1,0.08 -0.12,0.1 -0.27,0.53 0.37,0.53z"/>
   <path class="fil1" d="M8.69 24.21c-0.18,0.06 -0.56,0.83 -0.67,1.03 -0.06,0.11 -0.28,0.45 -0.31,0.55 -0.06,0.25 0.15,0.45 0.4,0.37 0.16,-0.05 0.26,-0.31 0.36,-0.48l0.62 -1.1c0.08,-0.27 -0.16,-0.47 -0.4,-0.38z"/>
   <path class="fil1" d="M14.42 25.76c-0.21,0.09 -0.18,0.26 -0.18,0.52l0.01 1.4c0.05,0.28 0.62,0.55 0.61,-0.27 -0,-0.24 -0,-0.47 -0,-0.71 0,-0.25 0.13,-1.18 -0.44,-0.93z"/>
   <path class="fil1" d="M20.99 2.93c-0.16,0.05 -0.15,0.07 -0.22,0.21l-0.78 1.36c-0.07,0.26 0.15,0.47 0.41,0.38 0.14,-0.05 0.26,-0.33 0.35,-0.48l0.62 -1.1c0.06,-0.25 -0.15,-0.45 -0.39,-0.37z"/>
   <path class="fil1" d="M2.9 7.91l0.02 0.19c0.03,0.06 0.06,0.12 0.1,0.17 0.12,0.02 1.06,0.58 1.29,0.72 0.6,0.36 0.7,-0.25 0.49,-0.43 -0.12,-0.1 -1.18,-0.65 -1.28,-0.75 -0.11,-0.05 -0.33,-0.2 -0.51,-0.03l-0.1 0.12z"/>
   <path class="fil2" d="M20.86 26.12c-0.03,-0.08 -0.07,-0.17 -0.14,-0.24 -0.12,0.09 -0.35,-0.14 -0.61,0.17 -0.15,0.18 -0.14,0.44 0.01,0.61 0.31,0.36 0.96,0.08 0.79,-0.52 -0.27,0.11 -0.07,0.18 -0.2,0.37 -0.06,0.1 -0.24,0.17 -0.38,0.09 -0.27,-0.15 -0.17,-0.64 0.25,-0.52 -0.09,0.21 -0.4,0.25 -0.28,0.46 0.19,0.05 0.27,-0.22 0.55,-0.42z"/>
   <path class="fil2" d="M20.91 8.31c-0.25,0.09 -0.07,0.18 -0.19,0.36 -0.06,0.1 -0.24,0.17 -0.38,0.09 -0.27,-0.15 -0.17,-0.64 0.25,-0.52 -0.03,0.07 -0.12,0.15 -0.19,0.21 -0.09,0.08 -0.17,0.11 -0.09,0.25 0.17,0.04 0.53,-0.43 0.54,-0.46 -0.25,-0.47 -1.12,-0.05 -0.78,0.52 0.25,0.43 1.02,0.22 0.83,-0.44z"/>
   <path class="fil2" d="M11.35 17.85c-0.23,0.12 -0.07,0.17 -0.18,0.36 -0.06,0.1 -0.22,0.17 -0.38,0.1 -0.27,-0.13 -0.13,-0.68 0.22,-0.53l-0.03 0.09c-0.02,0.03 -0.06,0.06 -0.09,0.09 -0.07,0.07 -0.14,0.11 -0.18,0.21l0.09 0.09c0.09,-0.04 0.46,-0.41 0.49,-0.49 -0.35,-0.46 -1.1,0.02 -0.77,0.54 0.3,0.47 1.08,0.09 0.82,-0.45z"/>
   <path class="fil2" d="M3.02 8.27c-0.03,-0.05 -0.07,-0.11 -0.1,-0.17 -0.76,-0.23 -0.89,0.44 -0.64,0.72 0.3,0.34 0.94,0.12 0.79,-0.51 -0.26,0.11 -0.07,0.18 -0.19,0.36 -0.06,0.1 -0.24,0.17 -0.38,0.09 -0.27,-0.15 -0.17,-0.64 0.25,-0.52 -0.03,0.08 -0.12,0.15 -0.19,0.21 -0.09,0.08 -0.17,0.11 -0.09,0.25 0.17,0.04 0.28,-0.2 0.55,-0.42z"/>
   <path class="fil2" d="M12.08 17.11c-0.22,0.12 -0.07,0.19 -0.18,0.38 -0.06,0.1 -0.25,0.16 -0.39,0.08 -0.28,-0.17 -0.12,-0.65 0.27,-0.51 -0.08,0.16 -0.37,0.28 -0.3,0.45 0.14,0.04 0.19,-0.08 0.29,-0.18 0.1,-0.1 0.21,-0.16 0.26,-0.28 -0.32,-0.49 -1.07,-0.03 -0.78,0.5 0.25,0.46 1.06,0.18 0.83,-0.44z"/>
   <path class="fil2" d="M21.65 7.57c-0.22,0.11 -0.08,0.16 -0.19,0.36 -0.06,0.11 -0.23,0.18 -0.39,0.1 -0.22,-0.11 -0.24,-0.6 0.25,-0.53 -0.03,0.14 -0.25,0.23 -0.32,0.4 0.05,0.08 0.02,0.05 0.1,0.09l0.48 -0.46c-0.21,-0.49 -1.1,-0.09 -0.79,0.48 0.24,0.43 1.01,0.3 0.84,-0.43z"/>
   <path class="fil2" d="M8.08 2.9c0.11,0.11 0.08,-0 0.21,0.19l0.06 0.08c0.05,-0.03 0.01,-0.01 0.07,0.03 0.09,0.07 -0.01,0.03 0.11,0.07l0.11 -0.11c-0.14,-0.2 -0.61,-0.49 -0.32,-0.75 0.29,-0.27 0.6,0.21 0.73,0.32l0.12 -0.1c-0.06,-0.1 -0.21,-0.23 -0.29,-0.31 -0.49,-0.51 -1.07,0.3 -0.72,0.57l-0.06 0.02z"/>
   <path class="fil2" d="M25.93 20.76c0.12,0.1 0.1,0.03 0.21,0.18l0.04 0.06c0.05,-0.03 0.02,0.09 0.2,0.1l0.08 -0.11c-0.14,-0.2 -0.61,-0.48 -0.32,-0.75 0.29,-0.27 0.6,0.21 0.73,0.32l0.12 -0.1c-0.06,-0.1 -0.21,-0.23 -0.29,-0.31 -0.35,-0.36 -0.87,-0.06 -0.81,0.39 0.03,0.19 0.1,0.14 0.04,0.22z"/>
   <path class="fil2" d="M8.52 21.11l0.11 -0.11c-0.14,-0.2 -0.61,-0.49 -0.32,-0.75 0.29,-0.27 0.6,0.21 0.73,0.32l0.12 -0.1c-0.04,-0.06 -0.31,-0.35 -0.38,-0.4 -0.39,-0.27 -0.93,0.21 -0.65,0.65 0.08,0.13 0.27,0.35 0.4,0.4z"/>
   <path class="fil2" d="M18.18 11.5c-0.06,-0.24 -0.62,-0.44 -0.33,-0.77 0.3,-0.34 0.6,0.21 0.77,0.29l0.08 -0.09c-0.03,-0.12 -0.11,-0.16 -0.19,-0.24 -0.26,-0.26 -0.57,-0.39 -0.82,-0.07 -0.26,0.33 0.02,0.6 0.25,0.82 0.14,0.14 0.1,0.14 0.24,0.05z"/>
   <path class="fil2" d="M2.9 7.91l0.1 -0.12c0.18,-0.17 0.41,-0.02 0.51,0.03 0.01,-0.15 0.14,-0.2 0.22,-0.3 -0.14,-0.36 -0.89,-0.3 -0.84,0.4z"/>
  </g>
 </g>
</svg>
