<?xml version="1.0" encoding="UTF-8"?>
<!DOCTYPE svg PUBLIC "-//W3C//DTD SVG 1.1//EN" "http://www.w3.org/Graphics/SVG/1.1/DTD/svg11.dtd">
<!-- Creator: CorelDRAW -->
<svg xmlns="http://www.w3.org/2000/svg" xml:space="preserve" width="4.9912mm" height="4.0614mm" version="1.1" style="shape-rendering:geometricPrecision; text-rendering:geometricPrecision; image-rendering:optimizeQuality; fill-rule:evenodd; clip-rule:evenodd"
viewBox="0 0 28.78 23.42"
 xmlns:xlink="http://www.w3.org/1999/xlink"
 xmlns:xodm="http://www.corel.com/coreldraw/odm/2003">
 <defs>
  <style type="text/css">
   <![CDATA[
    .fil0 {fill:black}
    .fil2 {fill:#A0A0A0}
    .fil1 {fill:#FEFEFE}
   ]]>
  </style>
 </defs>
 <g id="Camada_x0020_1">
  <metadata id="CorelCorpID_0Corel-Layer"/>
  <g id="_2206697933536">
   <path class="fil0" d="M-0 9.66l0 0.25c0.16,0.32 0.16,0.57 0.56,0.58 0.4,0.01 1.43,-1.13 1.77,-1.44 0.65,-0.6 3.85,-3.59 4.47,-4.29 1.01,-1.17 1.36,-1.97 2.41,-1.59l-0.01 9.27c-0.28,0.19 -0.68,0.37 -0.9,0.59 -0.28,0.27 -0.25,0.94 0.02,1.19 0.42,0.36 1.54,-0.52 1.94,-0.76 1.21,-0.72 2.42,-1.49 3.62,-2.17 1.04,-0.59 3.12,-2.39 3.79,-0.77 1.06,2.54 -2.38,4.51 -3.72,5.19 -0.9,0.46 -0.86,0.34 -1.63,1.33 -0.79,1.01 -1.63,2.49 -2.94,3.06 -1.26,0.56 -3.38,0.53 -4.84,0.64 -0.84,0.06 -1.67,0.12 -2.52,0.19 -0.42,0.03 -0.85,0.06 -1.27,0.09 -0.61,0.05 -0.54,0.16 -0.77,0.66l0 0.28c0.01,0.02 0.02,0.04 0.02,0.06l0.04 0.11c0.08,0.17 0.12,0.27 0.3,0.35 0.23,0.1 0.46,0.05 0.7,0.03l4.09 -0.3c1.82,-0.14 3.53,-0.05 5.07,-0.91 0.23,0.32 0.25,0.61 0.56,0.93 0.74,0.74 2.03,0.44 2.81,-0.28l0.16 0.3c0.04,0.08 0.12,0.24 0.16,0.31 0.11,0.18 0.22,0.3 0.39,0.44 1.08,0.91 2.64,0.28 3.15,-0.77 0.73,0.25 1.25,0.67 2.26,-0.16 0.93,-0.76 1.45,-2.36 1.53,-4.01 1.61,-0.08 3.27,0.02 4.89,-0.01 0.84,-0.02 1.28,-0.29 1.78,-0.83 0.69,-0.74 0.66,-1.47 0.86,-2.03l0 -11.99c-0.05,-0.17 -0.07,-0.5 -0.13,-0.74 -0.08,-0.29 -0.12,-0.4 -0.23,-0.65 -0.69,-1.52 -1.63,-1.79 -2.95,-1.79l-11.47 0c-2.18,0 -3.47,-0.26 -4.36,1.75 -1.2,-0.45 -1.91,-0.24 -2.92,1.06 -1.04,1.34 -4.28,4.29 -5.7,5.62 -0.67,0.63 -0.74,0.53 -1.02,1.22z"/>
   <path class="fil1" d="M10.48 11.67c0.54,-0.27 1.23,-0.72 1.76,-1.05 0.59,-0.37 1.21,-0.7 1.76,-1.07 0.99,-0.66 2.75,-1.81 3.96,-0.8 1.57,1.33 1.32,4.73 -0.74,6.46 -0.28,0.23 -0.5,0.42 -0.8,0.64l-0.88 0.66c2.83,0.14 6.86,0.01 9.91,0.01 0.52,0 1.08,0.07 1.47,-0.24 0.29,-0.23 0.68,-0.74 0.64,-1.37l0 -8.11 -17.18 -0.01 0 4.64c0.04,0.33 -0.04,0.12 0.09,0.23z"/>
   <path class="fil1" d="M10.36 3.76l17.26 0c-0.01,-0.54 -0.08,-0.97 -0.27,-1.33 -0.66,-1.26 -1.87,-0.92 -3.19,-0.92l-10.29 0c-1.33,0 -3.47,-0.55 -3.52,2.25z"/>
   <path class="fil1" d="M16.97 18.04l-2.17 -0.01c-0.08,1.51 -0.76,4.15 0.94,3.88 0.45,-0.07 1.12,-0.8 1.11,-1.29 -0.02,-1.07 0.05,-1.57 0.12,-2.58z"/>
   <path class="fil1" d="M20.09 18.03l-1.97 0.01c-0.07,0.7 -0.17,1.38 -0.16,2.05 0.01,0.82 0.23,1.16 0.9,0.85 0.76,-0.36 1.13,-1.63 1.23,-2.91z"/>
   <path class="fil1" d="M13.64 18.06l-0.46 -0.03c-0.1,0.24 -1.44,1.93 -1.68,2.18 -0.69,0.72 0.63,1.62 1.72,0.19 0.28,-0.37 0.25,-0.41 0.31,-1.06 0.04,-0.43 0.09,-0.85 0.11,-1.27z"/>
   <path class="fil2" d="M10.48 11.67c-0.13,-0.12 -0.05,0.1 -0.09,-0.23l-0 -4.64 17.18 0.01 -0 8.11c0.11,-0.07 0.12,-7.4 0.05,-8.14 -0.26,-0.09 -16.74,-0.14 -17.26,-0.01l-0.02 4.97 0.14 -0.07z"/>
  </g>
 </g>
</svg>
