<?xml version="1.0" encoding="UTF-8"?>
<!DOCTYPE svg PUBLIC "-//W3C//DTD SVG 1.1//EN" "http://www.w3.org/Graphics/SVG/1.1/DTD/svg11.dtd">
<!-- Creator: CorelDRAW -->
<svg xmlns="http://www.w3.org/2000/svg" xml:space="preserve" width="4.1032mm" height="5.3964mm" version="1.1" style="shape-rendering:geometricPrecision; text-rendering:geometricPrecision; image-rendering:optimizeQuality; fill-rule:evenodd; clip-rule:evenodd"
viewBox="0 0 19.65 25.84"
 xmlns:xlink="http://www.w3.org/1999/xlink"
 xmlns:xodm="http://www.corel.com/coreldraw/odm/2003">
 <defs>
  <style type="text/css">
   <![CDATA[
    .fil0 {fill:#161616}
    .fil1 {fill:white}
   ]]>
  </style>
 </defs>
 <g id="Camada_x0020_1">
  <metadata id="CorelCorpID_0Corel-Layer"/>
  <g id="_2206697930368">
   <path class="fil0" d="M1.36 9.14c-0.07,0.07 -0.17,0.17 -0.25,0.24 -1.85,1.72 -1.15,3.96 0.37,5.64l1.01 1.04c0.51,0.5 1.77,1.48 2.34,1.82 0.16,0.09 0.16,0.13 0.25,0.27 0.09,0.15 0.36,0.52 0.4,0.66 3.08,-0.06 6.4,-0.01 9.53,0 0.21,0 0.21,-0.04 0.3,-0.18 0.06,-0.1 0.11,-0.18 0.18,-0.29 1.66,-2.68 3,-5.49 3.73,-8.68 0.46,-2.01 0.72,-4.79 -0.03,-6.71 -0.92,-2.35 -2.56,-2.59 -4.82,-2.78 -2.41,-0.2 -4.97,-0.23 -7.37,-0.05 -2.28,0.17 -4.2,0.21 -5.28,2.37 -1.01,2.01 -0.67,4.55 -0.33,6.66z"/>
   <path class="fil0" d="M4.14 20.5c-0.77,0.21 -0.6,1.16 -0.6,1.98 0,0.4 -0.03,0.9 0,1.29 0.03,0.38 0.27,0.64 0.58,0.74 0.11,0.52 0.24,0.99 0.88,1.23 0.38,0.14 1.58,0.08 2.06,0.08 2.12,0 4.23,0 6.35,0 0.49,0 1.7,0.06 2.1,-0.04 0.5,-0.12 0.92,-0.55 0.99,-1.11 0.03,-0.25 0.02,-4.07 0.01,-4.24 -0.03,-0.59 -0.47,-1.05 -0.96,-1.18 -0.32,-0.09 -3.59,-0.04 -4.2,-0.04 -1.41,0 -2.83,0 -4.24,0 -0.46,0 -1.72,-0.05 -2.07,0.06 -0.5,0.16 -0.87,0.61 -0.91,1.23z"/>
   <path class="fil1" d="M4.32 20.89c-0.43,0.07 -0.36,0.47 -0.36,0.89 0,0.42 0,0.84 0,1.26 0,1.24 -0.07,1.09 1.44,1.09 0.34,0 4.82,0.03 5.03,-0.01 0.4,-0.08 0.33,-0.51 0.33,-0.9 0,-0.42 0,-0.84 0,-1.26 0,-1.2 0.05,-1.07 -1.43,-1.07 -0.34,0 -4.8,-0.03 -5,0.01z"/>
   <path class="fil1" d="M15.85 2.4c-0.9,0.17 -1.66,1.06 -1.46,2.17 0.16,0.9 1.05,1.7 2.17,1.48 0.88,-0.18 1.65,-1.07 1.45,-2.17 -0.17,-0.91 -1.05,-1.68 -2.16,-1.48z"/>
   <path class="fil1" d="M17.07 6.52c-0.62,0.12 -1.15,0.72 -1.01,1.49 0.11,0.61 0.71,1.14 1.46,1.01 0.61,-0.11 1.15,-0.72 1.01,-1.49 -0.12,-0.62 -0.7,-1.16 -1.46,-1.02z"/>
  </g>
 </g>
</svg>
