<?xml version="1.0" encoding="UTF-8"?>
<!DOCTYPE svg PUBLIC "-//W3C//DTD SVG 1.1//EN" "http://www.w3.org/Graphics/SVG/1.1/DTD/svg11.dtd">
<!-- Creator: CorelDRAW -->
<svg xmlns="http://www.w3.org/2000/svg" xml:space="preserve" width="4.9358mm" height="4.9234mm" version="1.1" style="shape-rendering:geometricPrecision; text-rendering:geometricPrecision; image-rendering:optimizeQuality; fill-rule:evenodd; clip-rule:evenodd"
viewBox="0 0 28.51 28.44"
 xmlns:xlink="http://www.w3.org/1999/xlink"
 xmlns:xodm="http://www.corel.com/coreldraw/odm/2003">
 <defs>
  <style type="text/css">
   <![CDATA[
    .fil0 {fill:black}
   ]]>
  </style>
 </defs>
 <g id="Camada_x0020_1">
  <metadata id="CorelCorpID_0Corel-Layer"/>
  <path class="fil0" d="M2.88 13.02c0.22,4.26 -0.08,8.87 0.02,13.02 0.07,2.68 1.9,2.51 6.56,2.25 4.6,-0.25 -0.83,-8.77 4.79,-8.77 3.23,0 2.83,3.27 2.82,5.94 -0.01,3.88 2.21,2.86 5.98,2.84 3.62,-0.02 2.53,-2.78 2.53,-6.25 0,-2.94 -0.11,-6.11 0.04,-9.02 3.26,-0.21 3.75,-1.45 1.45,-3.24 -2.14,-1.66 -11.82,-9.78 -12.83,-9.78 -1.02,-0 -10.54,8.02 -12.67,9.66 -2.33,1.8 -2.25,3.13 1.29,3.36z"/>
 </g>
</svg>
