<?xml version="1.0" encoding="UTF-8"?>
<!DOCTYPE svg PUBLIC "-//W3C//DTD SVG 1.1//EN" "http://www.w3.org/Graphics/SVG/1.1/DTD/svg11.dtd">
<!-- Creator: CorelDRAW -->
<svg xmlns="http://www.w3.org/2000/svg" xml:space="preserve" width="68.5487mm" height="41.9762mm" version="1.1" style="shape-rendering:geometricPrecision; text-rendering:geometricPrecision; image-rendering:optimizeQuality; fill-rule:evenodd; clip-rule:evenodd"
viewBox="0 0 6854.88 4197.63"
 xmlns:xlink="http://www.w3.org/1999/xlink"
 xmlns:xodm="http://www.corel.com/coreldraw/odm/2003">
 <defs>
  <style type="text/css">
   <![CDATA[
    .fil1 {fill:#727376}
    .fil0 {fill:#201E1E}
   ]]>
  </style>
 </defs>
 <g id="Camada_x0020_1">
  <metadata id="CorelCorpID_0Corel-Layer"/>
  <g id="_2206717969424">
   <g>
    <path class="fil0" d="M1856.79 1198.89l0 -54.38c-14.04,-46.92 -18.96,-144.72 -106.68,-182.1 -34.93,-14.9 -45.26,-6.96 -78.99,-9.63 -27.02,-38.03 -41.85,-86.72 -94.94,-94.11 -94.31,-13.12 -170.74,90.5 -177.5,202.11 -5.67,93.82 17.56,116.62 34.79,168.53 -31.84,41.01 -132.48,114.38 -199.83,133.11 -28.34,-70.3 -55.28,-142.93 -117.31,-170.7 -36.01,-16.12 -78.35,-1.79 -107.97,15.46 -16.82,9.8 -17.81,25.66 -23.18,50.44 -4.86,22.42 -7.04,45.11 -10.32,69.4 -26.71,-14.16 -72.75,-81.92 -92.96,-116.33 -53.8,-91.62 -62.43,-129.18 -124.51,-193.69 -17.12,-17.79 -32.85,-36.01 -58.38,-47.23 -59.56,-26.16 -105.84,29.86 -117.95,80.04 -30.53,126.45 73.12,267.23 140.13,342.98 9.56,10.81 13.11,18.37 23.7,27.9 9.98,8.98 15.95,16.1 25.95,25.43 47.77,44.59 92.01,80.21 150.89,114.77 67.34,39.53 92.99,36.32 156.12,43.11 32.37,3.48 63.53,48.16 122.48,84.26 91.23,55.85 213.13,80.81 315.98,26.64 88.24,-46.45 136.23,-132.03 175.92,-249.23 4.57,-13.52 21.62,-73.83 27.42,-79.81 15.93,-16.45 71.31,-11.61 112.31,-99.93 13.96,-30.07 15.06,-62.73 24.83,-87.04zm-538.3 315.17c62.57,85.9 145.84,51.23 204.07,-20.7 12.35,-15.26 97.34,-134.21 83.29,-160.43 -9.53,-17.8 -25.98,-40.5 -31.57,-59.41 -12.19,0.75 -43.1,2.75 -53.92,5.59 -16.06,4.22 -6.9,-1.74 -28.22,35.44 -28.47,49.7 -67.9,101.96 -106.75,141.09 -9.91,9.99 -21.33,19.16 -33.14,29.92 -9.75,8.88 -25.57,18.77 -33.76,28.5z"/>
    <g>
     <path class="fil0" d="M2325.44 547.35l4.95 -45.8 22.73 0 0 106.01 0 78.93 0 44.88 -24.61 0c-3.27,-61.63 -14.85,-109.74 -34.53,-144.11 -19.78,-34.39 -45.46,-51.49 -77.14,-51.49 -23.47,0 -42.31,11.04 -56.51,32.96 -14.21,21.91 -21.25,50.76 -21.25,86.77 0,30.64 5.04,55.21 15.15,73.56 9.99,18.54 34.93,40.27 74.61,65.39 61.03,37.96 100.71,74.12 118.91,108.32 18.32,34.39 27.47,80.19 27.47,137.56 0,69.65 -15.15,125.23 -45.45,166.56 -30.31,41.52 -71.15,62.19 -122.51,62.19 -26.83,0 -51.45,-6.95 -73.55,-20.67 -22.21,-13.72 -42.84,-34.92 -61.99,-63.6l-7.79 58.43 -22.09 0 0 -55.41 0 -82.48 0 -67.34 0 -55.42 25.88 0c2.83,72.88 15.99,130.23 39.46,172.29 23.36,41.86 53.77,62.9 91.25,62.9 23.57,0 41.99,-10.51 55.25,-31.37 13.26,-20.85 19.88,-49.71 19.88,-86.23 0,-32.43 -5.16,-58.08 -15.57,-77.33 -10.41,-19.06 -30.94,-38.29 -61.56,-57.54 -4.74,-3.04 -11.9,-7.67 -21.58,-13.55 -39.46,-23.86 -67.77,-46.49 -85.02,-67.69 -17.9,-21.9 -30.95,-46.85 -39.26,-74.64 -8.32,-27.8 -12.54,-60.4 -12.54,-97.64 0,-70.91 14.75,-126.84 44.11,-167.84 29.36,-41.15 69.87,-61.64 121.44,-61.64 23.05,0 44.83,5.54 65.25,16.39 20.42,10.88 39.36,27.09 56.61,48.65zm495.79 17.1l4.63 -53.28 25.16 0c-0.44,26.38 -0.74,51.49 -1.16,75.55 -0.42,23.86 -0.64,46.15 -0.64,66.63l0 78.75 0 53.8 -24.62 0c-3.47,-80.35 -16.73,-142.18 -39.58,-185.46 -22.93,-43.12 -53.99,-64.67 -93.13,-64.67 -44.41,0 -77.36,27.78 -98.92,83.38 -21.57,55.39 -32.31,140.73 -32.31,255.66 0,107.61 11.58,189.21 34.63,244.62 23.14,55.58 56.92,83.37 101.23,83.37 35.15,0 64.1,-14.61 86.93,-44 22.73,-29.22 37.98,-71.63 45.57,-127.04l28.41 0c-7.37,78.04 -26.62,137.18 -57.67,177.28 -31.04,40.08 -73.04,60.04 -126.08,60.04 -67.45,0 -122.17,-35.45 -164.27,-106.54 -41.99,-70.91 -63.04,-163.73 -63.04,-278.29 0,-119.37 21.57,-216.11 64.72,-290.4 43.14,-74.3 99.67,-111.54 169.54,-111.54 27.57,0 53.77,7.31 78.62,21.91 24.83,14.45 45.57,34.58 61.98,60.23zm92.51 -72.51c21.14,2.13 40.4,3.73 57.77,4.81 17.36,1.07 33.05,1.59 47.03,1.59 13.58,0 29.27,-0.52 46.95,-1.59 17.67,-1.08 37.57,-2.68 59.78,-4.81l0 49.17c-23.05,1.42 -37.68,6.05 -43.78,14.08 -6.21,8.01 -9.26,29.93 -9.26,65.55l0 203.64 174.9 0 0 -189.56c0,-40.8 -3.15,-66.45 -9.37,-76.96 -6.32,-10.51 -20.83,-16.04 -43.67,-16.75l0 -49.17c20.73,2.13 39.89,3.73 57.47,4.81 17.57,1.07 33.35,1.59 47.35,1.59 13.16,0 28.62,-0.52 46.4,-1.59 17.79,-1.08 37.88,-2.68 60.31,-4.81l0 49.71c-23.05,0 -37.68,5.34 -43.78,16.02 -6.21,10.52 -9.27,36.35 -9.27,77.15l0 481.57c0,40.98 3.16,66.81 9.37,77.15 6.32,10.51 20.84,15.67 43.68,15.67l0 50.25c-22.84,-2.14 -42.94,-3.75 -60.31,-4.81 -17.35,-1.07 -32.2,-1.61 -44.5,-1.61 -12.11,0 -27.16,0.54 -44.95,1.61 -17.68,1.06 -38.3,2.67 -61.77,4.81l0 -50.25c23.05,0 37.67,-5.34 43.78,-15.85 6.21,-10.7 9.26,-36.35 9.26,-76.97l0 -239.62 -174.9 0 0 244.79c0,42.04 2.94,66.98 8.83,74.82 5.79,7.84 20.52,12.14 44.21,12.83l0 50.25c-22.43,-2.14 -42.31,-3.75 -59.68,-4.81 -17.36,-1.07 -32.2,-1.61 -44.52,-1.61 -11.78,0 -26.62,0.54 -44.62,1.61 -17.99,1.06 -38.82,2.67 -62.71,4.81l0 -50.25c22.83,-0.69 37.45,-6.05 43.98,-15.85 6.43,-9.97 9.68,-34.2 9.68,-72.87l0 -501.88c0,-33.85 -3.05,-55.06 -9.25,-63.42 -6.22,-8.38 -20.94,-12.83 -44.41,-13.54l0 -49.71zm770.24 42.77c-36.74,0 -65.57,29.91 -86.51,89.97 -20.94,60.02 -31.46,143.77 -31.46,251.19 0,108.32 10.52,192.25 31.68,252.11 21.14,59.85 50.82,89.8 89.02,89.8 36.73,0 65.46,-30.12 86.2,-90.34 20.73,-60.23 31.14,-143.94 31.14,-251.57 0,-108.13 -10.52,-192.05 -31.56,-251.73 -21.06,-59.69 -50.52,-89.43 -88.51,-89.43zm2.1 -52.4c30.84,0 59.57,8.19 86.09,24.77 26.52,16.56 50.83,41.5 73.03,75.01 23.89,36.16 41.89,78.92 54.2,128.46 12.22,49.33 18.32,104.57 18.32,165.32 0,59.86 -6.54,115.28 -19.48,165.88 -12.94,50.59 -31.68,94.05 -56.4,130.23 -21.79,31.72 -46.1,55.77 -73.04,72.33 -26.94,16.57 -55.25,24.77 -84.82,24.77 -30.42,0 -59.04,-8.2 -85.77,-24.77 -26.73,-16.56 -50.94,-40.98 -72.72,-73.39 -24.1,-35.81 -42.31,-78.58 -54.62,-128.46 -12.31,-49.7 -18.53,-105.3 -18.53,-166.59 0,-60.39 6.42,-115.99 19.16,-166.23 12.74,-50.24 31.36,-93.18 55.77,-128.63 22.01,-32.43 46.42,-57 73.15,-73.58 26.72,-16.74 55.25,-25.12 85.66,-25.12zm510.62 52.4c-36.73,0 -65.56,29.91 -86.51,89.97 -20.94,60.02 -31.46,143.77 -31.46,251.19 0,108.32 10.52,192.25 31.68,252.11 21.15,59.85 50.82,89.8 89.02,89.8 36.73,0 65.46,-30.12 86.19,-90.34 20.74,-60.23 31.15,-143.94 31.15,-251.57 0,-108.13 -10.51,-192.05 -31.56,-251.73 -21.06,-59.69 -50.51,-89.43 -88.51,-89.43zm2.11 -52.4c30.83,0 59.56,8.19 86.08,24.77 26.52,16.56 50.82,41.5 73.03,75.01 23.89,36.16 41.89,78.92 54.21,128.46 12.21,49.33 18.31,104.57 18.31,165.32 0,59.86 -6.53,115.28 -19.48,165.88 -12.94,50.59 -31.67,94.05 -56.41,130.23 -21.78,31.72 -46.08,55.77 -73.03,72.33 -26.94,16.57 -55.25,24.77 -84.82,24.77 -30.41,0 -59.04,-8.2 -85.77,-24.77 -26.73,-16.56 -50.93,-40.98 -72.72,-73.39 -24.1,-35.81 -42.31,-78.58 -54.61,-128.46 -12.32,-49.7 -18.53,-105.3 -18.53,-166.59 0,-60.39 6.42,-115.99 19.15,-166.23 12.74,-50.24 31.36,-93.18 55.78,-128.63 22,-32.43 46.42,-57 73.14,-73.58 26.73,-16.74 55.25,-25.12 85.67,-25.12zm278.98 9.63l5.58 0c53.68,4.98 87.87,7.47 102.39,7.47 9.69,0 22.11,-0.53 37.04,-1.59 15.06,-1.07 39.78,-3.03 74.1,-5.88l0 50.24 -5.57 0c-23.27,0 -38.32,5.34 -44.95,15.85 -6.73,10.7 -10.1,36.35 -10.1,77.16l0 564.4 90.5 0c39.04,0 66.41,-13.89 82.2,-41.5 15.68,-27.63 25.67,-81.25 29.99,-160.53l27.78 0c-1.68,50.42 -3.69,97.45 -6.2,141.1 -2.42,43.83 -5.16,85.34 -8.32,125.06 -49.99,-2.13 -91.03,-3.72 -123.34,-4.8 -32.3,-1.08 -55.78,-1.6 -70.3,-1.6 -49.78,0 -87.13,0.18 -111.97,0.52 -24.95,0.37 -47.89,0.91 -68.83,1.62l0 -50.25c23.25,0 38,-5.34 44.31,-16.21 6.21,-10.68 9.36,-36.16 9.36,-76.43l0 -481.38c0,-40.46 -3.15,-65.94 -9.57,-76.62 -6.32,-10.51 -21.05,-16.04 -44.1,-16.39l0 -50.24z"/>
     <path class="fil0" d="M1451.66 2437.42l389.35 0c64.81,0 114.6,29.35 149.35,87.78 34.76,58.42 52.14,130.79 52.14,217.13 0,72.39 -12.37,134.51 -37.27,186.08 -16.43,34.77 -40.7,61.85 -72.48,82.08 48.37,21.08 83.75,57.28 106.61,108.85 22.71,51.58 34.13,116.26 34.13,194.07 0,63.53 -8.13,120.53 -24.26,171.24 -16.29,50.74 -38.52,90.64 -66.54,120.27 -17.53,18.24 -43.84,31.62 -79.06,39.88 -46.8,11.11 -77.8,16.83 -93.15,16.83l-358.82 0 0 -1224.21zm209.46 480.46l90.66 0c32.4,0 55.11,-10.26 67.78,-30.49 12.69,-20.52 19.11,-49.87 19.11,-88.35 0,-35.62 -6.42,-63.54 -19.11,-83.5 -12.67,-20.22 -34.91,-30.19 -66.38,-30.19l-92.06 0 0 232.53zm0 480.43l106 0c35.85,0 61.05,-11.67 75.77,-34.76 14.72,-23.09 22.07,-53.86 22.07,-92.9 0,-36.19 -7.2,-65.25 -21.76,-87.2 -14.57,-21.93 -40.08,-33.05 -76.56,-33.05l-105.52 0 0 247.91zm493.94 -347.92c0,-199.77 30.53,-355.36 91.74,-466.49 61.22,-111.42 146.39,-167 255.66,-167 111.93,0 198.2,54.73 258.78,163.86 60.59,109.42 90.8,262.75 90.8,459.64 0,143.05 -13.15,260.17 -39.6,351.65 -26.46,91.48 -64.81,162.72 -114.76,213.73 -50.09,51 -112.41,76.36 -187.09,76.36 -75.77,0 -138.55,-21.95 -188.33,-65.83 -49.63,-44.16 -90.03,-113.69 -120.86,-208.87 -30.85,-94.9 -46.34,-214.02 -46.34,-357.05zm207.6 0.85c0,123.38 12.67,212.28 37.88,266.15 25.36,53.87 59.81,80.92 103.33,80.92 44.62,0 79.37,-26.5 103.8,-79.21 24.57,-53 36.78,-147.61 36.78,-284.69 0,-115.12 -12.84,-199.18 -38.35,-252.18 -25.68,-53.29 -60.28,-79.8 -104.12,-79.8 -41.95,0 -75.76,27.08 -101.12,80.94 -25.53,53.85 -38.2,143.34 -38.2,267.87zm506.46 -613.82l229.19 0 119.14 376.73 115.69 -376.73 226.39 0 -209.01 593.01 228.72 631.2 -233.89 0 -131.98 -393.24 -132.91 393.24 -232.02 0 231.86 -638.03 -211.18 -586.18zm785.12 0l208.53 0 0 1224.21 -208.53 0 0 -1224.21zm358.98 0l193.97 0 252.22 675.94 0 -675.94 196.32 0 0 1224.21 -196.32 0 -250.81 -672.24 0 672.24 -195.38 0 0 -1224.21zm1118.76 781.36l0 -254.75 321.25 0 0 520.62c-61.53,76.39 -115.86,128.53 -162.98,156.17 -47.27,27.64 -103.33,41.32 -168.14,41.32 -79.84,0 -144.97,-24.79 -195.23,-74.37 -50.25,-49.31 -89.24,-123.12 -116.95,-221.13 -27.71,-97.74 -41.48,-210.31 -41.48,-337.12 0,-133.64 15.19,-249.63 45.4,-348.51 30.21,-98.59 74.52,-173.53 132.91,-224.83 45.57,-39.6 106.93,-59.28 183.97,-59.28 74.2,0 129.77,12.25 166.57,36.76 36.95,24.51 67.47,62.42 91.74,113.99 24.27,51.59 42.57,116.85 54.79,195.77l-200.07 65.55c-8.3,-46.46 -22.24,-82.08 -41.96,-106.58 -19.73,-24.79 -44.78,-37.04 -75.46,-37.04 -45.4,0 -81.72,28.78 -108.81,86.34 -27.08,57.57 -40.54,148.74 -40.54,273.28 0,132.21 13.61,226.81 41,283.53 27.25,56.71 65.45,85.2 114.3,85.2 23.17,0 45.24,-5.97 66.37,-18.23 20.99,-12.25 45.1,-33.06 72.33,-62.12l0 -114.57 -139.01 0z"/>
     <g>
      <g>
       <polygon class="fil0" points="1526.01,1974.67 2914.86,1974.67 2914.86,1858.25 1526.01,1858.25 "/>
       <polygon class="fil0" points="1760.81,1785.95 2914.86,1785.95 2914.86,1713.64 1760.81,1713.64 "/>
      </g>
      <g>
       <polygon class="fil0" points="5350.13,1974.67 3961.29,1974.67 3961.29,1858.25 5350.13,1858.25 "/>
       <polygon class="fil0" points="5115.33,1785.95 3961.29,1785.95 3961.29,1713.64 5115.33,1713.64 "/>
      </g>
     </g>
    </g>
    <path class="fil0" d="M4998.09 1198.89l0 -54.39c14.04,-46.91 18.97,-144.71 106.68,-182.09 34.93,-14.9 45.26,-6.96 79,-9.63 27.01,-38.03 41.85,-86.72 94.93,-94.11 94.31,-13.12 170.74,90.5 177.49,202.11 5.68,93.82 -17.55,116.62 -34.78,168.53 31.84,41.01 132.48,114.38 199.83,133.11 28.34,-70.3 55.28,-142.93 117.31,-170.69 36.01,-16.13 78.35,-1.8 107.97,15.45 16.82,9.8 17.81,25.66 23.18,50.43 4.86,22.43 7.04,45.12 10.32,69.41 26.71,-14.16 72.75,-81.92 92.96,-116.33 53.81,-91.62 62.43,-129.18 124.51,-193.69 17.12,-17.79 32.85,-36.01 58.38,-47.23 59.56,-26.17 105.84,29.86 117.94,80.04 30.54,126.45 -73.11,267.22 -140.12,342.98 -9.56,10.81 -13.11,18.37 -23.7,27.9 -9.98,8.98 -15.95,16.1 -25.95,25.43 -47.77,44.59 -92.01,80.21 -150.89,114.77 -67.34,39.53 -92.99,36.32 -156.12,43.11 -32.37,3.49 -63.53,48.16 -122.48,84.26 -91.23,55.85 -213.13,80.81 -315.99,26.65 -88.22,-46.46 -136.22,-132.04 -175.9,-249.24 -4.58,-13.52 -21.63,-73.83 -27.43,-79.81 -15.93,-16.45 -71.31,-11.61 -112.31,-99.93 -13.96,-30.07 -15.06,-62.73 -24.83,-87.04zm538.3 315.17c-62.57,85.91 -145.84,51.23 -204.07,-20.7 -12.35,-15.26 -97.34,-134.2 -83.29,-160.43 9.53,-17.8 25.97,-40.51 31.57,-59.4 12.2,0.74 43.1,2.74 53.92,5.58 16.07,4.22 6.91,-1.74 28.22,35.44 28.48,49.7 67.9,101.96 106.75,141.09 9.91,9.99 21.33,19.16 33.14,29.92 9.75,8.88 25.57,18.77 33.76,28.5z"/>
   </g>
   <g>
    <path class="fil1" d="M-0 3601.57l0 7.88 3.36 0c5.51,-8.76 62.39,-57.45 74.18,-67.82 83.51,-73.45 142.46,-122.39 223.94,-205.18 72.36,-73.51 139.18,-142.26 207.59,-220.29 209.56,-239.02 304.8,-568.02 229.23,-918.66 -5.63,-26.17 -29.3,-106.52 -27.58,-124.24 -10.91,-16.32 -19.45,-68.15 -51.61,-127.38 -18.24,-33.6 -48.68,-73.48 -84.83,-89.28 -56.05,-24.49 -68.25,-18.54 -106.07,23.01 -32.28,35.45 -44.09,69.69 -40.16,139.41 9.89,175.33 101.34,395.65 62.57,655.79 -34.11,228.77 -172.95,443.95 -275.82,610.58l-214.8 316.18z"/>
    <path class="fil1" d="M721.34 2032.48c-4.74,73.49 60.02,137.19 88.91,166.16 106.53,106.83 142.57,115.61 252.85,261.52 32.23,42.66 68.83,106.82 93.7,169.9 95.9,243.19 103.28,657.52 115.24,943.79 1.36,32.52 3.12,25.72 7.1,30.48 0.55,-12.23 10.44,-47.68 13.72,-67.3 3.91,-23.46 7.55,-45.57 11.24,-69.1 24.65,-157.38 38.4,-275.08 53.19,-437.42 20.51,-225.18 20.58,-393.09 -44.19,-590.59 -55.87,-170.37 -144.75,-292.95 -243,-381.15 -47.94,-43.04 -107.79,-98.98 -176.03,-128.15 -39.89,-17.05 -77.61,-23.44 -119.53,-2.92 -8.8,4.3 -15.35,8.02 -24.59,14.14 -23.09,15.28 -27.09,51.5 -28.61,90.64z"/>
    <path class="fil1" d="M1049.32 498.76l-53.29 0c-44.6,23.63 -71.2,5.98 -136.67,86.61 -134.36,165.48 -21.64,430.57 163.69,428.54 194.32,-2.13 290.92,-269.79 165.51,-426.43 -27.58,-34.45 -55.57,-59.1 -96.8,-75.2 -13,-5.08 -31.51,-6.66 -42.44,-13.52z"/>
    <g>
     <path class="fil1" d="M3233.59 1503.19c-36.74,0 -65.57,29.93 -86.51,89.97 -20.94,60.04 -31.46,143.77 -31.46,251.21 0,108.32 10.52,192.24 31.68,252.09 21.14,59.87 50.82,89.8 89.02,89.8 36.73,0 65.46,-30.11 86.19,-90.32 20.74,-60.23 31.15,-143.96 31.15,-251.57 0,-108.13 -10.52,-192.07 -31.56,-251.75 -21.06,-59.67 -50.52,-89.43 -88.51,-89.43zm2.1 -52.38c30.84,0 59.57,8.19 86.09,24.77 26.52,16.56 50.83,41.5 73.03,74.99 23.89,36.17 41.89,78.94 54.2,128.47 12.22,49.34 18.32,104.58 18.32,165.33 0,59.85 -6.54,115.26 -19.48,165.87 -12.94,50.58 -31.68,94.06 -56.41,130.24 -21.79,31.7 -46.09,55.77 -73.03,72.33 -26.94,16.57 -55.25,24.77 -84.82,24.77 -30.42,0 -59.04,-8.2 -85.77,-24.77 -26.73,-16.56 -50.94,-40.98 -72.72,-73.39 -24.1,-35.83 -42.31,-78.6 -54.62,-128.47 -12.31,-49.69 -18.53,-105.29 -18.53,-166.58 0,-60.4 6.42,-115.99 19.16,-166.23 12.74,-50.24 31.36,-93.18 55.77,-128.63 22.01,-32.43 46.42,-57.02 73.15,-73.59 26.72,-16.73 55.25,-25.11 85.66,-25.11zm278.99 9.61l381.59 0c0.32,32.07 1.17,65.21 2.31,99.79 1.06,34.38 2.54,69.65 4.43,105.46l-27.16 0c-3.68,-59.86 -12.62,-100.31 -26.72,-121.32 -14.1,-21.03 -39.89,-31.54 -77.56,-31.54l-98.4 0 0 290.77 43.99 0c27.26,0 44.31,-7.13 51.14,-21.21 6.94,-14.08 11.16,-46.13 12.84,-96.39l26.52 0c-0.84,30.65 -1.47,59.16 -1.89,85.17 -0.32,26.18 -0.52,47.92 -0.52,65.38 0,19.77 0.41,57.89 1.47,113.84 0.42,18.54 0.72,32.6 0.94,42.4l-26.52 0c-1.68,-56.47 -6.74,-93.53 -15.15,-111.17 -8.42,-17.81 -24.53,-26.72 -48.2,-26.72l-44.62 0 0 230.01c0,40.43 3.37,65.92 10,76.6 6.73,10.88 21.99,16.22 46.09,16.22l6.42 0 0 50.24 -221 0 0 -50.24c23.05,0 37.77,-5.34 44.09,-15.85 6.42,-10.7 9.59,-36.17 9.59,-76.97l0 -481.22c0,-40.08 -3.17,-65.57 -9.37,-76.26 -6.32,-10.85 -21.05,-16.38 -44.31,-16.73l0 -50.26z"/>
     <g>
      <polygon class="fil1" points="3140.39,0 3167.04,135.08 3253.79,134.82 3183.5,218.02 3210.47,352.94 3140.39,269.28 3070.31,352.94 3097.28,218.02 3027.01,134.82 3113.74,135.08 "/>
      <polygon class="fil1" points="3452.53,0 3479.18,135.08 3565.92,134.82 3495.64,218.02 3522.61,352.94 3452.53,269.28 3382.44,352.94 3409.41,218.02 3339.14,134.82 3425.87,135.08 "/>
      <polygon class="fil1" points="3764.66,0 3791.31,135.08 3878.05,134.82 3807.77,218.02 3834.74,352.94 3764.66,269.28 3694.58,352.94 3721.55,218.02 3651.28,134.82 3738.01,135.08 "/>
     </g>
    </g>
    <path class="fil1" d="M6854.88 3601.57l0 7.88 -3.36 0c-5.5,-8.76 -62.39,-57.45 -74.18,-67.82 -83.51,-73.45 -142.46,-122.39 -223.94,-205.18 -72.36,-73.51 -139.18,-142.26 -207.59,-220.29 -209.56,-239.02 -304.8,-568.02 -229.23,-918.66 5.63,-26.17 29.3,-106.52 27.58,-124.24 10.91,-16.32 19.45,-68.15 51.61,-127.38 18.24,-33.6 48.68,-73.48 84.83,-89.28 56.05,-24.49 68.25,-18.54 106.07,23.01 32.28,35.45 44.09,69.69 40.16,139.41 -9.88,175.33 -101.34,395.65 -62.57,655.79 34.11,228.77 172.96,443.95 275.82,610.58l214.8 316.18z"/>
    <path class="fil1" d="M6133.54 2032.48c4.74,73.49 -60.02,137.19 -88.91,166.16 -106.53,106.83 -142.57,115.61 -252.85,261.52 -32.23,42.66 -68.83,106.82 -93.7,169.9 -95.9,243.19 -103.28,657.52 -115.24,943.79 -1.36,32.52 -3.12,25.72 -7.1,30.48 -0.55,-12.23 -10.44,-47.68 -13.71,-67.3 -3.92,-23.46 -7.56,-45.57 -11.25,-69.1 -24.65,-157.38 -38.4,-275.08 -53.19,-437.42 -20.51,-225.18 -20.58,-393.09 44.19,-590.59 55.87,-170.37 144.75,-292.95 243,-381.15 47.94,-43.04 107.79,-98.98 176.03,-128.15 39.89,-17.05 77.61,-23.44 119.53,-2.92 8.8,4.3 15.35,8.02 24.59,14.14 23.09,15.28 27.09,51.5 28.61,90.64z"/>
    <path class="fil1" d="M5805.56 498.76l53.29 0c44.6,23.63 71.2,5.98 136.67,86.61 134.36,165.48 21.64,430.57 -163.69,428.54 -194.32,-2.13 -290.92,-269.79 -165.51,-426.43 27.58,-34.45 55.57,-59.1 96.8,-75.2 13,-5.08 31.51,-6.66 42.44,-13.52z"/>
    <path class="fil1" d="M2137.71 3847.05l116.37 0c26.25,0 46.26,2.17 60.02,6.57 18.46,5.94 34.35,16.51 47.51,31.74 13.24,15.15 23.24,33.75 30.16,55.79 6.84,21.96 10.3,49.13 10.3,81.35 0,28.37 -3.24,52.74 -9.71,73.26 -7.87,25.08 -19.13,45.36 -33.76,60.83 -11.04,11.78 -25.97,20.92 -44.73,27.49 -14.04,4.89 -32.8,7.29 -56.34,7.29l-119.82 0 0 -344.32zm63.99 58.19l0 227.95 47.45 0c17.72,0 30.52,-1.13 38.39,-3.29 10.37,-2.81 18.91,-7.62 25.67,-14.35 6.84,-6.73 12.36,-17.79 16.63,-33.18 4.34,-15.39 6.47,-36.47 6.47,-63.08 0,-26.61 -2.13,-46.96 -6.47,-61.23 -4.27,-14.27 -10.3,-25.33 -18.02,-33.34 -7.73,-7.94 -17.51,-13.39 -29.43,-16.19 -8.82,-2.17 -26.26,-3.29 -52.15,-3.29l-28.54 0zm254.72 286.13l0 -344.32 233.9 0 0 58.19 -169.9 0 0 76.46 157.99 0 0 58.19 -157.99 0 0 93.3 176.08 0 0 58.18 -240.08 0zm277.6 -111.56l62.22 -6.74c3.75,22.69 11.26,39.28 22.66,49.94 11.4,10.66 26.77,15.95 46.12,15.95 20.44,0 35.89,-4.73 46.26,-14.19 10.37,-9.46 15.6,-20.52 15.6,-33.18 0,-8.18 -2.21,-15.07 -6.55,-20.84 -4.34,-5.69 -11.99,-10.66 -22.88,-14.83 -7.42,-2.88 -24.34,-7.85 -50.82,-15.07 -34.06,-9.29 -57.96,-20.68 -71.72,-34.22 -19.34,-19 -28.98,-42.16 -28.98,-69.49 0,-17.55 4.56,-34.06 13.61,-49.37 9.12,-15.31 22.21,-26.93 39.35,-34.95 17.14,-8.01 37.73,-12.02 62.01,-12.02 39.5,0 69.29,9.54 89.22,28.69 20.01,19.16 30.45,44.65 31.48,76.63l-63.99 2.4c-2.72,-17.79 -8.53,-30.54 -17.43,-38.31 -8.91,-7.78 -22.29,-11.7 -40.09,-11.7 -18.39,0 -32.81,4.17 -43.18,12.5 -6.69,5.37 -10.08,12.5 -10.08,21.48 0,8.18 3.17,15.15 9.49,20.92 8.02,7.45 27.51,15.15 58.48,23.16 30.97,7.94 53.84,16.27 68.63,24.77 14.85,8.58 26.48,20.2 34.86,35.03 8.39,14.82 12.58,33.1 12.58,54.82 0,19.71 -5,38.23 -15.08,55.46 -10.08,17.23 -24.27,30.06 -42.66,38.39 -18.39,8.42 -41.34,12.59 -68.78,12.59 -39.94,0 -70.61,-10.02 -92.01,-30.14 -21.41,-20.04 -34.13,-49.29 -38.32,-87.68zm311.13 -232.76l116.36 0c26.26,0 46.27,2.17 60.02,6.57 18.47,5.94 34.35,16.51 47.52,31.74 13.24,15.15 23.24,33.75 30.16,55.79 6.84,21.96 10.3,49.13 10.3,81.35 0,28.37 -3.24,52.74 -9.71,73.26 -7.87,25.08 -19.13,45.36 -33.77,60.83 -11.03,11.78 -25.96,20.92 -44.72,27.49 -14.05,4.89 -32.8,7.29 -56.34,7.29l-119.82 0 0 -344.32zm63.99 58.19l0 227.95 47.45 0c17.72,0 30.52,-1.13 38.39,-3.29 10.37,-2.81 18.9,-7.62 25.67,-14.35 6.84,-6.73 12.36,-17.79 16.62,-33.18 4.34,-15.39 6.48,-36.47 6.48,-63.08 0,-26.61 -2.14,-46.96 -6.48,-61.23 -4.26,-14.27 -10.29,-25.33 -18.02,-33.34 -7.72,-7.94 -17.5,-13.39 -29.42,-16.19 -8.82,-2.17 -26.26,-3.29 -52.15,-3.29l-28.54 0zm254.72 286.13l0 -344.32 233.9 0 0 58.19 -169.91 0 0 76.46 158 0 0 58.19 -158 0 0 93.3 176.09 0 0 58.18 -240.08 0zm558.2 0l-60.46 0 0 -249.26c-22.06,22.6 -48.1,39.35 -78.11,50.17l0 -60.11c15.81,-5.61 32.95,-16.27 51.41,-32.06 18.54,-15.71 31.19,-34.06 38.1,-54.98l49.06 0 0 346.24zm92.76 -79.98l58.69 -7.06c1.4,13.07 5.15,22.76 11.11,29.02 5.96,6.33 13.9,9.45 23.68,9.45 12.44,0 22.95,-6.33 31.63,-18.91 8.68,-12.58 14.2,-38.71 16.63,-78.23 -15.23,19.24 -34.21,28.86 -57.08,28.86 -24.79,0 -46.27,-10.42 -64.29,-31.34 -18.02,-20.92 -26.99,-48.09 -26.99,-81.59 0,-34.95 9.49,-63.08 28.54,-84.4 19.05,-21.4 43.32,-32.06 72.74,-32.06 32,0 58.33,13.54 78.85,40.55 20.52,27.09 30.82,71.58 30.82,133.61 0,63 -10.66,108.53 -31.99,136.42 -21.34,27.97 -49.14,41.92 -83.42,41.92 -24.64,0 -44.5,-7.22 -59.72,-21.64 -15.15,-14.35 -24.94,-35.91 -29.2,-64.6zm136.37 -144.43c0,-21.24 -4.49,-37.76 -13.46,-49.46 -8.9,-11.7 -19.28,-17.55 -31.04,-17.55 -11.18,0 -20.45,4.81 -27.81,14.43 -7.43,9.62 -11.1,25.32 -11.1,47.13 0,22.2 4.04,38.47 12.06,48.89 8.02,10.34 18.02,15.55 30.08,15.55 11.62,0 21.41,-4.97 29.35,-14.99 7.94,-10.02 11.92,-24.69 11.92,-44zm109.08 144.43l58.69 -7.06c1.4,13.07 5.15,22.76 11.11,29.02 5.96,6.33 13.9,9.45 23.69,9.45 12.43,0 22.94,-6.33 31.62,-18.91 8.68,-12.58 14.2,-38.71 16.63,-78.23 -15.23,19.24 -34.21,28.86 -57.08,28.86 -24.79,0 -46.27,-10.42 -64.29,-31.34 -18.02,-20.92 -26.99,-48.09 -26.99,-81.59 0,-34.95 9.49,-63.08 28.54,-84.4 19.05,-21.4 43.32,-32.06 72.74,-32.06 32,0 58.33,13.54 78.85,40.55 20.52,27.09 30.82,71.58 30.82,133.61 0,63 -10.66,108.53 -31.99,136.42 -21.33,27.97 -49.14,41.92 -83.41,41.92 -24.65,0 -44.51,-7.22 -59.73,-21.64 -15.15,-14.35 -24.94,-35.91 -29.2,-64.6zm136.37 -144.43c0,-21.24 -4.49,-37.76 -13.46,-49.46 -8.9,-11.7 -19.27,-17.55 -31.04,-17.55 -11.18,0 -20.45,4.81 -27.81,14.43 -7.43,9.62 -11.1,25.32 -11.1,47.13 0,22.2 4.04,38.47 12.06,48.89 8.02,10.34 18.02,15.55 30.08,15.55 11.63,0 21.41,-4.97 29.35,-14.99 7.95,-10.02 11.92,-24.69 11.92,-44zm107.75 136.01l60.47 -6.81c1.76,14.9 6.84,26.77 15.3,35.5 8.53,8.74 18.31,13.07 29.42,13.07 12.65,0 23.39,-5.61 32.14,-16.91 8.75,-11.31 13.17,-28.3 13.17,-50.98 0,-21.32 -4.34,-37.27 -13.1,-47.93 -8.68,-10.66 -20,-15.95 -33.98,-15.95 -17.43,0 -33.1,8.34 -46.93,25.01l-48.98 -7.7 30.89 -178.89 160.2 0 0 61.55 -114.23 0 -9.56 58.59c13.46,-7.29 27.29,-10.98 41.41,-10.98 26.92,0 49.72,10.66 68.41,32.06 18.75,21.32 28.09,49.05 28.09,83.2 0,28.45 -7.57,53.78 -22.65,76.14 -20.6,30.46 -49.14,45.69 -85.62,45.69 -29.2,0 -53.03,-8.58 -71.42,-25.65 -18.46,-17.15 -29.42,-40.08 -33.03,-69.01z"/>
   </g>
  </g>
 </g>
</svg>
