<?xml version="1.0" encoding="UTF-8"?>
<!DOCTYPE svg PUBLIC "-//W3C//DTD SVG 1.1//EN" "http://www.w3.org/Graphics/SVG/1.1/DTD/svg11.dtd">
<!-- Creator: CorelDRAW -->
<svg xmlns="http://www.w3.org/2000/svg" xml:space="preserve" width="5.9073mm" height="6.1558mm" version="1.1" style="shape-rendering:geometricPrecision; text-rendering:geometricPrecision; image-rendering:optimizeQuality; fill-rule:evenodd; clip-rule:evenodd"
viewBox="0 0 39.89 41.57"
 xmlns:xlink="http://www.w3.org/1999/xlink"
 xmlns:xodm="http://www.corel.com/coreldraw/odm/2003">
 <defs>
  <style type="text/css">
   <![CDATA[
    .fil0 {fill:#373435}
   ]]>
  </style>
 </defs>
 <g id="Camada_x0020_1">
  <metadata id="CorelCorpID_0Corel-Layer"/>
  <g id="_2206846260736">
   <path class="fil0" d="M13.55 14.63l0.02 -3.11c0,-1.35 0.45,-1.12 1.16,-1.83 0.3,-0.3 0.25,-0.29 0.55,-0.52l7.02 -6.22c0.26,-0.23 0.27,-0.37 0.62,-0.43 0.28,-0.05 13.7,-0.07 14.02,0.04 0.53,0.19 0.41,0.87 0.41,1.43l-0 30.9c-0,4.83 0.65,4.18 -2.93,4.18 -3,0 -19.39,0.12 -20.61,-0.05 -0.5,-0.82 -0.25,-2.64 -0.25,-3.8 0,-1.02 0.19,-5.33 -0.19,-6.09 -0.21,-0.42 -0.48,-0.9 -0.71,-1.33 -0.2,-0.37 -1.21,-2.44 -1.53,-2.71l-0.03 10.67c-0.01,2.12 -0.46,5 2.42,5.69 0.97,0.23 14.02,0.09 16.15,0.09 1.53,0 6.81,0.19 7.91,-0.13 2.71,-0.78 2.22,-3.57 2.22,-5.86l0 -24.33c0,-2.56 0.15,-5.58 -0.01,-8.08 -0.21,-3.34 -3.01,-3.08 -4.95,-3.08 -2.73,0 -5.45,-0 -8.18,0 -5.79,0.01 -4.17,-0.48 -7.58,2.5 -0.21,0.19 -0.33,0.24 -0.53,0.44l-4.25 3.82c-0.68,0.62 -2.29,1.85 -2.75,2.42 -0.8,1 0.01,1.82 0.53,2.8 0.26,0.5 1.2,2.35 1.46,2.62z"/>
   <path class="fil0" d="M5.26 15.04c0.94,-2.07 -3.18,-7.06 -3.54,-8.83 0.42,-0.18 0.66,-0.46 1.19,-0.53 0.2,0.62 2.75,5.09 3.22,6.16 0.37,-0.07 2.72,-1.37 3.03,-1.62l-3.96 -7.48c-0.31,-0.59 -0.43,-0.95 -1.11,-1.14 -1.78,-0.51 -3,0.65 -3.44,2.08 -0.36,1.16 -1.13,0.66 -0.25,2.36l3.22 6.04c0.3,0.57 1.3,2.59 1.63,2.97z"/>
   <path class="fil0" d="M7.03 13.38l6.85 12.89c0.54,-0.06 2.4,-1.22 3.01,-1.48 -0.17,-0.62 -5.29,-10.06 -6,-11.37 -0.24,-0.45 -0.58,-1.22 -0.89,-1.59l-2.97 1.56z"/>
   <path class="fil0" d="M17.29 34.28c-0.6,0.21 -0.89,0.97 -0.55,1.6 0.33,0.61 1.11,0.53 1.97,0.52 2.32,-0.01 14.37,0.11 14.91,-0.07 0.56,-0.19 0.95,-0.97 0.54,-1.61 -0.41,-0.65 -1.07,-0.51 -1.99,-0.51 -2.27,0.01 -14.39,-0.1 -14.88,0.07z"/>
   <path class="fil0" d="M17.25 19.03c-0.54,0.3 -0.94,0.92 -0.44,1.61 0.41,0.58 1.17,0.43 2.02,0.43 1.65,-0 3.3,-0 4.95,-0 1.29,0 9.39,0.13 9.91,-0.09 0.57,-0.24 0.89,-1.01 0.44,-1.63 -0.42,-0.57 -1.22,-0.46 -2.06,-0.45 -2.27,0 -14.31,-0.16 -14.82,0.13z"/>
   <path class="fil0" d="M17.36 13.88c-0.59,0.22 -1.04,0.82 -0.61,1.53 0.39,0.64 1.06,0.56 1.97,0.56 2.32,-0.01 14.37,0.11 14.92,-0.08 0.51,-0.18 1,-0.95 0.51,-1.62 -0.41,-0.57 -1.17,-0.47 -1.98,-0.46 -2.28,0 -14.3,-0.11 -14.82,0.08z"/>
   <path class="fil0" d="M25.42 4.91c-1.58,0.35 -3.01,1.92 -2.54,3.95 0.37,1.6 1.99,3.05 4.11,2.51 4.02,-1.02 2.79,-7.43 -1.57,-6.46z"/>
   <path class="fil0" d="M19.65 26.16c1.12,0.12 2.86,0.02 4.02,0.02 1.29,0 9.49,0.19 10.11,-0.14 0.39,-0.21 0.75,-0.77 0.46,-1.41 -0.44,-0.96 -2.3,-0.63 -3.36,-0.63l-12.32 -0.01 1.09 2.17z"/>
   <path class="fil0" d="M20.79 31.26c1.86,0.17 8.4,0.01 11.06,0.01 1.18,0 2.64,0.21 2.47,-1.23 -0.14,-1.17 -1.49,-0.93 -2.68,-0.93l-11.23 0.03 0.38 2.12z"/>
   <path class="fil0" d="M14.76 27.87c0.26,0.9 2.3,2.75 3.15,3.6 0.29,0.29 0.76,0.96 1.19,0.99 0.2,-0.41 -0.34,-2.41 -0.48,-3.09 -0.23,-1.18 -0.38,-2.05 -0.88,-3.02 -0.3,0.05 -2.68,1.3 -2.98,1.53z"/>
   <path class="fil0" d="M6.65 12.69c0.02,0.01 0.05,-0 0.05,0.02 0.01,0.02 0.05,0.01 0.06,0.01 0.1,-0.01 0.05,0.01 0.2,-0.04l1.19 -0.65c0.43,-0.22 1.3,-0.49 1.54,-0.98 -0.4,-0.3 -0.53,-0.01 -1.65,0.56 -0.27,0.14 -0.58,0.32 -0.84,0.46 -0.43,0.22 -0.77,0.26 -0.56,0.63z"/>
   <path class="fil0" d="M14.25 27.07c0.4,0.34 0.48,0.04 1.61,-0.55 0.27,-0.14 0.49,-0.23 0.8,-0.4 0.36,-0.19 0.63,-0.23 0.68,-0.62 -0.16,-0.1 0.09,-0.3 -0.8,0.19 -0.56,0.31 -2.17,1.04 -2.29,1.38z"/>
  </g>
 </g>
</svg>
