<?xml version="1.0" encoding="UTF-8"?>
<!DOCTYPE svg PUBLIC "-//W3C//DTD SVG 1.1//EN" "http://www.w3.org/Graphics/SVG/1.1/DTD/svg11.dtd">
<!-- Creator: CorelDRAW -->
<svg xmlns="http://www.w3.org/2000/svg" xml:space="preserve" width="3.6881mm" height="5.5507mm" version="1.1" style="shape-rendering:geometricPrecision; text-rendering:geometricPrecision; image-rendering:optimizeQuality; fill-rule:evenodd; clip-rule:evenodd"
viewBox="0 0 31.24 47.01"
 xmlns:xlink="http://www.w3.org/1999/xlink"
 xmlns:xodm="http://www.corel.com/coreldraw/odm/2003">
 <defs>
  <style type="text/css">
   <![CDATA[
    .fil0 {fill:black}
    .fil1 {fill:white}
   ]]>
  </style>
 </defs>
 <g id="Camada_x0020_1">
  <metadata id="CorelCorpID_0Corel-Layer"/>
  <g id="_2206853478128">
   <path class="fil0" d="M15.58 47.01c0.51,-0.53 0.61,-0.61 1.06,-1.37l6.44 -10.65c2.12,-3.55 5.33,-8.91 6.79,-12.71 2.14,-5.6 1.8,-11 -1.25,-15.52 -5.65,-8.39 -18.94,-9.59 -25.8,-0.14 -3.3,4.55 -3.64,9.54 -1.37,15.34 2.3,5.88 6.74,13.79 10.21,19.11 0.72,1.1 3.28,5.26 3.91,5.92z"/>
   <path class="fil1" d="M14.6 7.38c-10.67,1.47 -8.8,17.36 2.01,16.17 4.33,-0.48 7.66,-4.22 7.11,-9.15 -0.48,-4.19 -4.32,-7.69 -9.12,-7.03z"/>
  </g>
 </g>
</svg>
