<?xml version="1.0" encoding="UTF-8"?>
<!DOCTYPE svg PUBLIC "-//W3C//DTD SVG 1.1//EN" "http://www.w3.org/Graphics/SVG/1.1/DTD/svg11.dtd">
<!-- Creator: CorelDRAW -->
<svg xmlns="http://www.w3.org/2000/svg" xml:space="preserve" width="3.9498mm" height="4.7472mm" version="1.1" style="shape-rendering:geometricPrecision; text-rendering:geometricPrecision; image-rendering:optimizeQuality; fill-rule:evenodd; clip-rule:evenodd"
viewBox="0 0 30.33 36.46"
 xmlns:xlink="http://www.w3.org/1999/xlink"
 xmlns:xodm="http://www.corel.com/coreldraw/odm/2003">
 <defs>
  <style type="text/css">
   <![CDATA[
    .fil1 {fill:#FEFEFE}
    .fil0 {fill:black}
   ]]>
  </style>
 </defs>
 <g id="Camada_x0020_1">
  <metadata id="CorelCorpID_0Corel-Layer"/>
  <g id="_2206290931152">
   <path class="fil0" d="M-0 29.41l0 7.05 30.33 0 0 -7.05c0,-2.25 -1.32,-4.28 -2.37,-5.53 -0.63,-0.75 -1.59,-1.54 -2.39,-2.1l-0.94 -0.56c-0.36,-0.19 -0.88,-0.53 -1.35,-0.64 -0.21,0.4 -0.4,0.68 -0.65,1.05 -1.01,1.49 -1.84,2.04 -3.38,2.81l-2.89 1.53c-1.56,0.95 -0.98,0.71 -3.55,-0.63 -0.78,-0.4 -1.5,-0.78 -2.3,-1.19 -0.68,-0.34 -1.51,-0.97 -1.99,-1.5 -0.47,-0.54 -1.16,-1.49 -1.48,-2.08 -0.38,0.09 -0.95,0.44 -1.31,0.62 -0.63,0.32 -1.24,0.76 -1.8,1.19 -1.19,0.93 -2.52,2.49 -3.14,3.84 -0.39,0.84 -0.81,1.99 -0.81,3.18z"/>
   <path class="fil0" d="M5.7 9.47c-1.66,1.11 -1.54,4.72 0.73,6.11 0.54,0.33 0.41,-0 0.64,0.72 0.83,2.59 3,5.75 5.6,6.87 3.84,1.65 7.42,-0.63 9.37,-3.91 0.18,-0.3 0.33,-0.55 0.5,-0.85 0.53,-0.95 0.77,-1.91 1,-2.42 0.19,-0.43 1.52,-0.51 2.18,-2.59 0.32,-1.02 0.29,-2.23 -0.18,-3.08 -0.23,-0.41 -0.76,-1.01 -1.23,-1.12 0.01,-0.41 0.14,-0.59 0.14,-1.07 0,-1.64 -0.15,-2.47 -1.01,-3.9 -1.46,-2.44 -4.88,-4.21 -7.96,-4.21 -2.12,0 -2.95,0.08 -4.85,0.84 -2.06,0.82 -3.99,2.54 -4.76,4.64 -0.51,1.38 -0.47,2.58 -0.14,3.99z"/>
   <path class="fil1" d="M9 6.18c2.14,3 9.63,3.22 12.08,-0.43 1.16,1.98 1.6,3.48 1.62,4.7 2.48,-0.63 2.49,3.93 -0.26,4.2 -3.26,11.74 -12.49,8.94 -14.42,-0 -2.99,0.22 -2.41,-5.52 -0.32,-3.97 0.04,-1.4 0.5,-2.91 1.29,-4.5z"/>
  </g>
 </g>
</svg>
