<?xml version="1.0" encoding="UTF-8"?>
<!DOCTYPE svg PUBLIC "-//W3C//DTD SVG 1.1//EN" "http://www.w3.org/Graphics/SVG/1.1/DTD/svg11.dtd">
<!-- Creator: CorelDRAW -->
<svg xmlns="http://www.w3.org/2000/svg" xml:space="preserve" width="23.3888mm" height="14.3223mm" version="1.1" style="shape-rendering:geometricPrecision; text-rendering:geometricPrecision; image-rendering:optimizeQuality; fill-rule:evenodd; clip-rule:evenodd"
viewBox="0 0 1085.32 664.61"
 xmlns:xlink="http://www.w3.org/1999/xlink"
 xmlns:xodm="http://www.corel.com/coreldraw/odm/2003">
 <defs>
  <style type="text/css">
   <![CDATA[
    .fil0 {fill:#FEFEFE}
   ]]>
  </style>
 </defs>
 <g id="Camada_x0020_1">
  <metadata id="CorelCorpID_0Corel-Layer"/>
  <g id="_2206876575184">
   <g>
    <path class="fil0" d="M293.99 189.82l0 -8.61c-2.22,-7.43 -3,-22.91 -16.89,-28.84 -5.53,-2.36 -7.16,-1.1 -12.51,-1.52 -4.27,-6.02 -6.62,-13.73 -15.03,-14.9 -14.93,-2.08 -27.03,14.33 -28.1,32 -0.9,14.85 2.78,18.46 5.51,26.68 -5.04,6.49 -20.97,18.11 -31.64,21.08 -4.49,-11.13 -8.75,-22.63 -18.58,-27.03 -5.7,-2.55 -12.4,-0.28 -17.1,2.45 -2.66,1.55 -2.82,4.06 -3.67,7.99 -0.77,3.55 -1.11,7.14 -1.63,10.99 -4.23,-2.24 -11.52,-12.97 -14.72,-18.42 -8.52,-14.51 -9.88,-20.45 -19.71,-30.67 -2.71,-2.82 -5.2,-5.7 -9.24,-7.48 -9.43,-4.14 -16.76,4.73 -18.67,12.67 -4.84,20.02 11.58,42.31 22.19,54.31 1.51,1.71 2.07,2.91 3.75,4.42 1.58,1.42 2.52,2.55 4.11,4.03 7.56,7.06 14.57,12.7 23.89,18.17 10.66,6.26 14.72,5.75 24.72,6.83 5.13,0.55 10.06,7.62 19.39,13.34 14.45,8.84 33.74,12.8 50.03,4.22 13.97,-7.35 21.57,-20.91 27.85,-39.46 0.72,-2.14 3.42,-11.69 4.34,-12.64 2.52,-2.6 11.29,-1.84 17.78,-15.82 2.21,-4.76 2.39,-9.94 3.94,-13.78zm-85.23 49.9c9.91,13.6 23.09,8.11 32.31,-3.28 1.95,-2.41 15.41,-21.25 13.19,-25.4 -1.51,-2.82 -4.12,-6.41 -5,-9.41 -1.93,0.12 -6.82,0.43 -8.53,0.88 -2.54,0.67 -1.1,-0.27 -4.47,5.61 -4.51,7.87 -10.75,16.14 -16.9,22.34 -1.57,1.58 -3.37,3.03 -5.24,4.73 -1.55,1.41 -4.05,2.97 -5.35,4.52z"/>
    <g>
     <path class="fil0" d="M368.18 86.66l0.78 -7.25 3.6 0 0 16.78 0 12.5 0 7.1 -3.9 0c-0.52,-9.75 -2.35,-17.37 -5.47,-22.82 -3.13,-5.44 -7.2,-8.15 -12.21,-8.15 -3.72,0 -6.7,1.74 -8.95,5.22 -2.25,3.47 -3.36,8.04 -3.36,13.74 0,4.85 0.8,8.74 2.4,11.64 1.58,2.94 5.53,6.38 11.81,10.36 9.66,6.01 15.94,11.74 18.83,17.15 2.9,5.44 4.35,12.69 4.35,21.78 0,11.03 -2.39,19.83 -7.19,26.37 -4.8,6.58 -11.27,9.85 -19.4,9.85 -4.25,0 -8.15,-1.1 -11.65,-3.27 -3.52,-2.17 -6.78,-5.53 -9.81,-10.07l-1.23 9.25 -3.49 0 0 -8.77 0 -13.06 0 -10.66 0 -8.77 4.1 0c0.45,11.54 2.53,20.62 6.25,27.28 3.7,6.63 8.52,9.96 14.45,9.96 3.74,0 6.65,-1.67 8.75,-4.97 2.1,-3.3 3.15,-7.87 3.15,-13.65 0,-5.13 -0.82,-9.2 -2.46,-12.24 -1.65,-3.02 -4.9,-6.06 -9.75,-9.11 -0.75,-0.48 -1.88,-1.22 -3.42,-2.15 -6.25,-3.78 -10.73,-7.36 -13.46,-10.72 -2.84,-3.47 -4.9,-7.42 -6.22,-11.81 -1.32,-4.4 -1.98,-9.56 -1.98,-15.46 0,-11.23 2.33,-20.08 6.98,-26.57 4.64,-6.52 11.06,-9.76 19.23,-9.76 3.65,0 7.1,0.88 10.33,2.6 3.23,1.72 6.23,4.29 8.97,7.7zm78.5 2.71l0.73 -8.44 3.99 0c-0.07,4.18 -0.12,8.15 -0.19,11.96 -0.06,3.78 -0.1,7.31 -0.1,10.55l0 12.47 0 8.52 -3.9 0c-0.55,-12.72 -2.65,-22.51 -6.26,-29.36 -3.63,-6.83 -8.55,-10.24 -14.75,-10.24 -7.03,0 -12.25,4.39 -15.66,13.2 -3.42,8.77 -5.11,22.28 -5.11,40.48 0,17.04 1.83,29.96 5.48,38.73 3.67,8.8 9.01,13.2 16.03,13.2 5.57,0 10.15,-2.32 13.76,-6.97 3.6,-4.63 6.01,-11.34 7.22,-20.11l4.5 0c-1.16,12.35 -4.21,21.72 -9.13,28.06 -4.91,6.35 -11.56,9.51 -19.96,9.51 -10.68,0 -19.34,-5.61 -26.01,-16.87 -6.65,-11.23 -9.98,-25.93 -9.98,-44.06 0,-18.9 3.42,-34.22 10.25,-45.98 6.83,-11.76 15.78,-17.66 26.84,-17.66 4.37,0 8.52,1.16 12.45,3.47 3.93,2.29 7.21,5.48 9.81,9.54zm14.65 -11.48c3.35,0.34 6.39,0.59 9.15,0.76 2.75,0.17 5.23,0.26 7.45,0.26 2.15,0 4.63,-0.08 7.43,-0.26 2.8,-0.17 5.95,-0.42 9.47,-0.76l0 7.79c-3.65,0.22 -5.96,0.96 -6.93,2.23 -0.98,1.27 -1.47,4.74 -1.47,10.38l0 32.24 27.69 0 0 -30.01c0,-6.46 -0.5,-10.52 -1.48,-12.19 -1,-1.66 -3.29,-2.54 -6.91,-2.65l0 -7.79c3.29,0.34 6.32,0.59 9.1,0.76 2.78,0.17 5.28,0.26 7.5,0.26 2.08,0 4.53,-0.08 7.35,-0.26 2.82,-0.17 6,-0.42 9.55,-0.76l0 7.87c-3.65,0 -5.97,0.84 -6.93,2.54 -0.98,1.66 -1.47,5.75 -1.47,12.21l0 76.25c0,6.49 0.5,10.58 1.48,12.22 1,1.66 3.3,2.48 6.91,2.48l0 7.96c-3.61,-0.34 -6.8,-0.59 -9.55,-0.76 -2.75,-0.17 -5.1,-0.26 -7.04,-0.26 -1.92,0 -4.3,0.08 -7.12,0.26 -2.8,0.17 -6.06,0.42 -9.78,0.76l0 -7.96c3.65,0 5.97,-0.84 6.93,-2.51 0.98,-1.69 1.47,-5.75 1.47,-12.19l0 -37.94 -27.69 0 0 38.76c0,6.65 0.47,10.6 1.4,11.85 0.91,1.24 3.25,1.92 7,2.03l0 7.96c-3.55,-0.34 -6.7,-0.59 -9.45,-0.76 -2.75,-0.17 -5.1,-0.26 -7.05,-0.26 -1.87,0 -4.21,0.08 -7.06,0.26 -2.85,0.17 -6.15,0.42 -9.93,0.76l0 -7.96c3.61,-0.11 5.93,-0.96 6.96,-2.51 1.02,-1.58 1.54,-5.42 1.54,-11.54l0 -79.46c0,-5.36 -0.48,-8.72 -1.47,-10.04 -0.98,-1.33 -3.32,-2.03 -7.03,-2.14l0 -7.87zm121.95 6.77c-5.81,0 -10.38,4.74 -13.69,14.25 -3.32,9.5 -4.98,22.76 -4.98,39.77 0,17.15 1.67,30.44 5.02,39.92 3.35,9.48 8.05,14.22 14.09,14.22 5.82,0 10.37,-4.77 13.65,-14.31 3.28,-9.54 4.93,-22.79 4.93,-39.83 0,-17.12 -1.67,-30.41 -5,-39.86 -3.33,-9.45 -8,-14.16 -14.01,-14.16zm0.33 -8.3c4.88,0 9.43,1.3 13.63,3.93 4.2,2.62 8.05,6.57 11.56,11.87 3.78,5.73 6.63,12.5 8.58,20.34 1.93,7.81 2.9,16.56 2.9,26.18 0,9.48 -1.03,18.25 -3.09,26.26 -2.05,8.01 -5.02,14.9 -8.93,20.62 -3.45,5.02 -7.3,8.83 -11.57,11.45 -4.26,2.62 -8.75,3.92 -13.43,3.92 -4.81,0 -9.35,-1.3 -13.58,-3.92 -4.23,-2.62 -8.06,-6.49 -11.51,-11.62 -3.82,-5.67 -6.7,-12.44 -8.65,-20.34 -1.95,-7.87 -2.93,-16.67 -2.93,-26.38 0,-9.56 1.02,-18.37 3.03,-26.32 2.01,-7.95 4.97,-14.75 8.83,-20.37 3.48,-5.13 7.35,-9.03 11.58,-11.65 4.23,-2.65 8.75,-3.98 13.56,-3.98zm80.84 8.3c-5.81,0 -10.38,4.74 -13.69,14.25 -3.32,9.5 -4.98,22.76 -4.98,39.77 0,17.15 1.67,30.44 5.02,39.92 3.35,9.48 8.05,14.22 14.1,14.22 5.81,0 10.36,-4.77 13.64,-14.31 3.29,-9.54 4.93,-22.79 4.93,-39.83 0,-17.12 -1.66,-30.41 -5,-39.86 -3.33,-9.45 -8,-14.16 -14.01,-14.16zm0.33 -8.3c4.88,0 9.43,1.3 13.63,3.93 4.19,2.62 8.05,6.57 11.56,11.87 3.79,5.73 6.64,12.5 8.58,20.34 1.93,7.81 2.9,16.56 2.9,26.18 0,9.48 -1.03,18.25 -3.09,26.26 -2.05,8.01 -5.02,14.9 -8.93,20.62 -3.45,5.02 -7.29,8.83 -11.56,11.45 -4.27,2.62 -8.75,3.92 -13.43,3.92 -4.81,0 -9.35,-1.3 -13.58,-3.92 -4.23,-2.62 -8.06,-6.49 -11.51,-11.62 -3.81,-5.67 -6.7,-12.44 -8.65,-20.34 -1.95,-7.87 -2.93,-16.67 -2.93,-26.38 0,-9.56 1.02,-18.37 3.03,-26.32 2.01,-7.95 4.97,-14.75 8.83,-20.37 3.48,-5.13 7.35,-9.03 11.58,-11.65 4.23,-2.65 8.75,-3.98 13.56,-3.98zm44.17 1.53l0.89 0c8.5,0.79 13.91,1.18 16.21,1.18 1.54,0 3.5,-0.08 5.87,-0.25 2.39,-0.17 6.3,-0.48 11.73,-0.93l0 7.95 -0.88 0c-3.68,0 -6.06,0.84 -7.12,2.51 -1.06,1.69 -1.6,5.75 -1.6,12.22l0 89.36 14.33 0c6.18,0 10.52,-2.2 13.01,-6.57 2.48,-4.38 4.06,-12.86 4.75,-25.42l4.4 0c-0.27,7.98 -0.58,15.43 -0.98,22.34 -0.39,6.94 -0.82,13.51 -1.32,19.8 -7.92,-0.33 -14.41,-0.59 -19.53,-0.76 -5.11,-0.17 -8.83,-0.26 -11.13,-0.26 -7.88,0 -13.8,0.03 -17.73,0.08 -3.95,0.06 -7.58,0.14 -10.9,0.26l0 -7.96c3.68,0 6.02,-0.84 7.02,-2.57 0.98,-1.69 1.48,-5.73 1.48,-12.1l0 -76.21c0,-6.41 -0.5,-10.44 -1.51,-12.13 -1,-1.66 -3.33,-2.54 -6.98,-2.59l0 -7.95z"/>
     <path class="fil0" d="M229.84 385.92l61.65 0c10.26,0 18.14,4.64 23.65,13.9 5.5,9.25 8.26,20.71 8.26,34.38 0,11.46 -1.96,21.3 -5.9,29.46 -2.6,5.51 -6.45,9.8 -11.48,13 7.66,3.34 13.26,9.07 16.88,17.23 3.6,8.17 5.4,18.41 5.4,30.73 0,10.06 -1.29,19.08 -3.84,27.11 -2.58,8.03 -6.1,14.35 -10.53,19.04 -2.78,2.89 -6.94,5.01 -12.52,6.32 -7.41,1.76 -12.32,2.66 -14.75,2.66l-56.82 0 0 -193.83zm33.16 76.07l14.36 0c5.13,0 8.72,-1.62 10.73,-4.83 2.01,-3.25 3.03,-7.9 3.03,-13.99 0,-5.64 -1.02,-10.06 -3.03,-13.22 -2,-3.2 -5.53,-4.78 -10.51,-4.78l-14.58 0 0 36.82zm0 76.06l16.78 0c5.68,0 9.67,-1.85 12,-5.5 2.33,-3.66 3.49,-8.53 3.49,-14.71 0,-5.73 -1.14,-10.33 -3.44,-13.81 -2.31,-3.47 -6.35,-5.23 -12.12,-5.23l-16.71 0 0 39.25zm78.21 -55.09c0,-31.63 4.83,-56.26 14.52,-73.86 9.69,-17.64 23.18,-26.44 40.48,-26.44 17.72,0 31.38,8.66 40.97,25.94 9.59,17.32 14.38,41.6 14.38,72.77 0,22.64 -2.08,41.19 -6.27,55.68 -4.19,14.48 -10.26,25.76 -18.17,33.84 -7.93,8.07 -17.8,12.09 -29.62,12.09 -12,0 -21.93,-3.48 -29.81,-10.42 -7.86,-6.99 -14.26,-18 -19.14,-33.07 -4.89,-15.03 -7.34,-33.88 -7.34,-56.53zm32.87 0.13c0,19.54 2,33.61 6,42.14 4.02,8.53 9.47,12.81 16.36,12.81 7.06,0 12.57,-4.19 16.44,-12.54 3.89,-8.39 5.82,-23.37 5.82,-45.08 0,-18.23 -2.03,-31.54 -6.07,-39.93 -4.06,-8.44 -9.55,-12.64 -16.48,-12.64 -6.64,0 -12,4.29 -16.01,12.82 -4.04,8.52 -6.05,22.69 -6.05,42.41zm80.19 -97.18l36.29 0 18.87 59.65 18.32 -59.65 35.84 0 -33.09 93.89 36.21 99.94 -37.03 0 -20.9 -62.26 -21.04 62.26 -36.73 0 36.71 -101.02 -33.44 -92.81zm124.31 0l33.02 0 0 193.83 -33.02 0 0 -193.83zm56.84 0l30.71 0 39.93 107.02 0 -107.02 31.09 0 0 193.83 -31.09 0 -39.71 -106.44 0 106.44 -30.93 0 0 -193.83zm177.13 123.71l0 -40.33 50.86 0 0 82.43c-9.74,12.1 -18.34,20.35 -25.81,24.73 -7.48,4.38 -16.36,6.54 -26.62,6.54 -12.64,0 -22.96,-3.93 -30.91,-11.78 -7.95,-7.81 -14.13,-19.49 -18.52,-35.01 -4.39,-15.48 -6.57,-33.29 -6.57,-53.37 0,-21.16 2.4,-39.53 7.19,-55.18 4.78,-15.61 11.8,-27.48 21.04,-35.6 7.21,-6.27 16.93,-9.38 29.12,-9.38 11.75,0 20.55,1.94 26.38,5.82 5.85,3.88 10.68,9.88 14.52,18.05 3.84,8.17 6.74,18.5 8.67,31l-31.68 10.38c-1.31,-7.35 -3.52,-12.99 -6.64,-16.87 -3.13,-3.93 -7.09,-5.87 -11.95,-5.87 -7.19,0 -12.94,4.56 -17.23,13.67 -4.29,9.11 -6.42,23.55 -6.42,43.27 0,20.94 2.15,35.91 6.49,44.9 4.32,8.97 10.36,13.49 18.1,13.49 3.67,0 7.16,-0.95 10.51,-2.89 3.32,-1.94 7.14,-5.23 11.45,-9.84l0 -18.14 -22.01 0z"/>
     <g>
      <g>
       <polygon class="fil0" points="241.61,312.65 461.51,312.65 461.51,294.21 241.61,294.21 "/>
       <polygon class="fil0" points="278.79,282.77 461.51,282.77 461.51,271.32 278.79,271.32 "/>
      </g>
      <g>
       <polygon class="fil0" points="847.08,312.65 627.19,312.65 627.19,294.21 847.08,294.21 "/>
       <polygon class="fil0" points="809.91,282.77 627.19,282.77 627.19,271.32 809.91,271.32 "/>
      </g>
     </g>
    </g>
    <path class="fil0" d="M791.34 189.82l0 -8.61c2.23,-7.42 3.01,-22.91 16.9,-28.83 5.53,-2.36 7.16,-1.1 12.51,-1.52 4.27,-6.02 6.63,-13.73 15.03,-14.9 14.93,-2.08 27.03,14.33 28.1,32 0.9,14.85 -2.78,18.46 -5.51,26.68 5.04,6.49 20.98,18.11 31.64,21.08 4.49,-11.13 8.76,-22.63 18.58,-27.03 5.7,-2.55 12.4,-0.28 17.1,2.45 2.66,1.55 2.82,4.06 3.67,7.99 0.77,3.55 1.11,7.14 1.63,10.99 4.23,-2.24 11.52,-12.97 14.72,-18.42 8.52,-14.51 9.88,-20.45 19.71,-30.67 2.71,-2.82 5.2,-5.7 9.24,-7.48 9.43,-4.14 16.76,4.73 18.67,12.67 4.84,20.02 -11.57,42.31 -22.19,54.31 -1.51,1.71 -2.07,2.91 -3.75,4.42 -1.58,1.42 -2.53,2.55 -4.11,4.03 -7.56,7.06 -14.57,12.7 -23.89,18.17 -10.66,6.26 -14.72,5.75 -24.72,6.83 -5.12,0.55 -10.06,7.62 -19.39,13.34 -14.45,8.84 -33.74,12.8 -50.03,4.22 -13.97,-7.35 -21.57,-20.91 -27.85,-39.46 -0.73,-2.14 -3.42,-11.69 -4.34,-12.64 -2.52,-2.6 -11.29,-1.83 -17.78,-15.82 -2.21,-4.76 -2.39,-9.94 -3.94,-13.78zm85.23 49.9c-9.91,13.6 -23.09,8.11 -32.31,-3.28 -1.95,-2.41 -15.41,-21.25 -13.18,-25.4 1.51,-2.82 4.11,-6.42 5,-9.41 1.93,0.12 6.82,0.43 8.54,0.88 2.54,0.67 1.09,-0.27 4.46,5.61 4.51,7.87 10.75,16.14 16.9,22.34 1.57,1.58 3.38,3.03 5.25,4.73 1.54,1.41 4.05,2.97 5.34,4.52z"/>
   </g>
   <g>
    <path class="fil0" d="M-0 570.23l0 1.25 0.53 0c0.87,-1.39 9.87,-9.1 11.74,-10.74 13.22,-11.63 22.55,-19.38 35.46,-32.49 11.45,-11.64 22.03,-22.52 32.87,-34.88 33.18,-37.84 48.26,-89.93 36.29,-145.45 -0.89,-4.14 -4.64,-16.86 -4.37,-19.67 -1.73,-2.58 -3.08,-10.79 -8.17,-20.17 -2.89,-5.32 -7.71,-11.63 -13.43,-14.13 -8.87,-3.88 -10.8,-2.94 -16.79,3.64 -5.11,5.61 -6.98,11.03 -6.36,22.07 1.56,27.76 16.05,62.64 9.91,103.83 -5.4,36.22 -27.38,70.29 -43.67,96.67l-34.01 50.06z"/>
    <path class="fil0" d="M114.21 321.8c-0.75,11.64 9.5,21.72 14.08,26.31 16.87,16.91 22.57,18.3 40.03,41.41 5.1,6.75 10.9,16.91 14.84,26.9 15.18,38.5 16.35,104.1 18.25,149.43 0.21,5.15 0.5,4.07 1.12,4.83 0.09,-1.94 1.65,-7.55 2.17,-10.66 0.62,-3.71 1.2,-7.21 1.78,-10.94 3.9,-24.92 6.08,-43.55 8.42,-69.26 3.25,-35.65 3.26,-62.24 -7,-93.51 -8.84,-26.97 -22.92,-46.38 -38.47,-60.35 -7.59,-6.81 -17.07,-15.67 -27.87,-20.29 -6.32,-2.7 -12.29,-3.71 -18.93,-0.46 -1.39,0.68 -2.43,1.27 -3.89,2.24 -3.65,2.42 -4.29,8.15 -4.53,14.35z"/>
    <path class="fil0" d="M166.14 78.97l-8.44 0c-7.06,3.74 -11.27,0.95 -21.64,13.71 -21.27,26.2 -3.42,68.17 25.92,67.85 30.77,-0.34 46.06,-42.72 26.2,-67.52 -4.37,-5.46 -8.8,-9.36 -15.33,-11.91 -2.06,-0.8 -4.99,-1.05 -6.72,-2.14z"/>
    <g>
     <path class="fil0" d="M511.97 238c-5.81,0 -10.38,4.74 -13.7,14.25 -3.31,9.5 -4.98,22.76 -4.98,39.77 0,17.15 1.67,30.44 5.02,39.91 3.35,9.48 8.05,14.22 14.09,14.22 5.81,0 10.37,-4.77 13.65,-14.3 3.29,-9.54 4.93,-22.79 4.93,-39.83 0,-17.12 -1.67,-30.41 -5,-39.86 -3.34,-9.45 -8,-14.16 -14.01,-14.16zm0.33 -8.29c4.88,0 9.43,1.29 13.63,3.92 4.2,2.62 8.05,6.57 11.56,11.87 3.78,5.72 6.63,12.5 8.58,20.34 1.94,7.81 2.9,16.56 2.9,26.18 0,9.48 -1.03,18.25 -3.08,26.26 -2.05,8 -5.02,14.89 -8.93,20.62 -3.45,5.02 -7.3,8.83 -11.56,11.45 -4.26,2.63 -8.75,3.92 -13.43,3.92 -4.82,0 -9.35,-1.29 -13.58,-3.92 -4.23,-2.62 -8.06,-6.49 -11.52,-11.62 -3.81,-5.67 -6.7,-12.45 -8.64,-20.34 -1.95,-7.87 -2.93,-16.67 -2.93,-26.38 0,-9.56 1.02,-18.37 3.03,-26.32 2.02,-7.95 4.97,-14.75 8.83,-20.37 3.48,-5.13 7.35,-9.03 11.58,-11.65 4.23,-2.65 8.75,-3.97 13.56,-3.97zm44.17 1.52l60.42 0c0.05,5.08 0.19,10.32 0.37,15.8 0.17,5.45 0.4,11.03 0.7,16.7l-4.3 0c-0.58,-9.48 -2,-15.88 -4.23,-19.21 -2.23,-3.33 -6.32,-4.99 -12.28,-4.99l-15.58 0 0 46.04 6.97 0c4.32,0 7.01,-1.13 8.09,-3.36 1.1,-2.23 1.77,-7.3 2.04,-15.26l4.19 0c-0.13,4.85 -0.23,9.36 -0.3,13.48 -0.05,4.14 -0.08,7.59 -0.08,10.35 0,3.13 0.06,9.17 0.23,18.03 0.07,2.93 0.12,5.16 0.15,6.71l-4.19 0c-0.27,-8.94 -1.07,-14.81 -2.4,-17.6 -1.34,-2.82 -3.88,-4.23 -7.63,-4.23l-7.07 0 0 36.41c0,6.4 0.53,10.44 1.59,12.13 1.06,1.72 3.48,2.57 7.29,2.57l1.02 0 0 7.96 -34.99 0 0 -7.96c3.65,0 5.98,-0.84 6.98,-2.51 1.02,-1.69 1.52,-5.73 1.52,-12.19l0 -76.19c0,-6.34 -0.5,-10.38 -1.48,-12.07 -1,-1.72 -3.33,-2.59 -7.02,-2.65l0 -7.95z"/>
     <g>
      <polygon class="fil0" points="497.21,0 501.43,21.39 515.17,21.35 504.04,34.52 508.31,55.88 497.21,42.64 486.12,55.88 490.39,34.52 479.26,21.35 493,21.39 "/>
      <polygon class="fil0" points="546.63,0 550.85,21.39 564.59,21.35 553.46,34.52 557.73,55.88 546.63,42.64 535.54,55.88 539.81,34.52 528.68,21.35 542.42,21.39 "/>
      <polygon class="fil0" points="596.05,0 600.27,21.39 614.01,21.35 602.88,34.52 607.15,55.88 596.05,42.64 584.96,55.88 589.23,34.52 578.1,21.35 591.84,21.39 "/>
     </g>
    </g>
    <path class="fil0" d="M1085.32 570.23l0 1.25 -0.53 0c-0.87,-1.39 -9.88,-9.1 -11.74,-10.74 -13.23,-11.63 -22.56,-19.38 -35.46,-32.49 -11.46,-11.64 -22.04,-22.52 -32.87,-34.88 -33.18,-37.84 -48.26,-89.93 -36.3,-145.45 0.9,-4.14 4.64,-16.86 4.37,-19.67 1.73,-2.58 3.08,-10.79 8.17,-20.17 2.89,-5.32 7.71,-11.63 13.43,-14.13 8.87,-3.88 10.8,-2.94 16.79,3.64 5.11,5.61 6.98,11.03 6.36,22.07 -1.56,27.76 -16.05,62.64 -9.91,103.83 5.4,36.22 27.38,70.29 43.67,96.67l34.01 50.06z"/>
    <path class="fil0" d="M971.12 321.8c0.75,11.64 -9.5,21.72 -14.08,26.31 -16.86,16.91 -22.57,18.3 -40.03,41.41 -5.1,6.75 -10.9,16.91 -14.84,26.9 -15.18,38.5 -16.35,104.1 -18.25,149.43 -0.21,5.15 -0.49,4.07 -1.12,4.83 -0.09,-1.94 -1.65,-7.55 -2.17,-10.66 -0.62,-3.71 -1.2,-7.21 -1.78,-10.94 -3.9,-24.92 -6.08,-43.55 -8.42,-69.26 -3.25,-35.65 -3.26,-62.24 6.99,-93.51 8.85,-26.97 22.92,-46.38 38.47,-60.35 7.59,-6.81 17.07,-15.67 27.87,-20.29 6.32,-2.7 12.29,-3.71 18.92,-0.46 1.39,0.68 2.43,1.27 3.89,2.24 3.66,2.42 4.29,8.15 4.53,14.35z"/>
    <path class="fil0" d="M919.19 78.97l8.44 0c7.06,3.74 11.27,0.95 21.64,13.71 21.27,26.2 3.42,68.17 -25.92,67.85 -30.77,-0.34 -46.06,-42.72 -26.2,-67.52 4.37,-5.46 8.8,-9.36 15.33,-11.91 2.06,-0.8 4.99,-1.05 6.71,-2.14z"/>
    <path class="fil0" d="M338.46 609.1l18.42 0c4.16,0 7.33,0.34 9.5,1.04 2.92,0.94 5.44,2.62 7.52,5.03 2.1,2.4 3.68,5.35 4.77,8.84 1.09,3.48 1.63,7.78 1.63,12.88 0,4.49 -0.52,8.35 -1.54,11.6 -1.24,3.97 -3.03,7.18 -5.35,9.63 -1.74,1.87 -4.11,3.31 -7.08,4.36 -2.22,0.77 -5.19,1.15 -8.92,1.15l-18.97 0 0 -54.51zm10.13 9.21l0 36.09 7.51 0c2.81,0 4.83,-0.18 6.08,-0.52 1.64,-0.45 2.99,-1.21 4.06,-2.27 1.08,-1.06 1.95,-2.82 2.63,-5.25 0.69,-2.44 1.03,-5.77 1.03,-9.99 0,-4.21 -0.34,-7.44 -1.03,-9.69 -0.68,-2.26 -1.63,-4.01 -2.85,-5.28 -1.22,-1.26 -2.77,-2.12 -4.66,-2.56 -1.4,-0.34 -4.16,-0.52 -8.26,-0.52l-4.52 0zm40.33 45.3l0 -54.51 37.03 0 0 9.21 -26.9 0 0 12.11 25.01 0 0 9.22 -25.01 0 0 14.77 27.88 0 0 9.21 -38.01 0zm43.95 -17.66l9.85 -1.07c0.59,3.59 1.78,6.22 3.59,7.91 1.81,1.68 4.24,2.52 7.3,2.52 3.24,0 5.68,-0.75 7.33,-2.25 1.64,-1.5 2.47,-3.25 2.47,-5.25 0,-1.29 -0.35,-2.39 -1.03,-3.3 -0.69,-0.9 -1.9,-1.69 -3.62,-2.35 -1.17,-0.46 -3.86,-1.24 -8.05,-2.39 -5.39,-1.48 -9.18,-3.28 -11.35,-5.42 -3.06,-3.01 -4.59,-6.68 -4.59,-11 0,-2.78 0.72,-5.39 2.16,-7.82 1.44,-2.42 3.51,-4.26 6.23,-5.53 2.71,-1.27 5.98,-1.9 9.82,-1.9 6.26,0 10.97,1.51 14.13,4.54 3.17,3.03 4.82,7.07 4.98,12.13l-10.13 0.38c-0.43,-2.82 -1.35,-4.84 -2.76,-6.06 -1.41,-1.23 -3.53,-1.85 -6.35,-1.85 -2.91,0 -5.19,0.66 -6.84,1.98 -1.06,0.85 -1.6,1.98 -1.6,3.4 0,1.29 0.5,2.4 1.5,3.31 1.27,1.18 4.36,2.4 9.26,3.67 4.9,1.26 8.52,2.58 10.87,3.92 2.35,1.36 4.19,3.2 5.52,5.55 1.33,2.35 1.99,5.24 1.99,8.68 0,3.12 -0.79,6.05 -2.39,8.78 -1.6,2.73 -3.84,4.76 -6.76,6.08 -2.91,1.33 -6.54,2 -10.89,2 -6.32,0 -11.18,-1.59 -14.57,-4.77 -3.39,-3.17 -5.4,-7.8 -6.06,-13.88zm49.26 -36.85l18.42 0c4.16,0 7.32,0.34 9.5,1.04 2.92,0.94 5.44,2.62 7.52,5.03 2.1,2.4 3.68,5.35 4.77,8.84 1.08,3.48 1.63,7.78 1.63,12.88 0,4.49 -0.51,8.35 -1.54,11.6 -1.24,3.97 -3.03,7.18 -5.35,9.63 -1.74,1.87 -4.11,3.31 -7.08,4.36 -2.22,0.77 -5.19,1.15 -8.92,1.15l-18.97 0 0 -54.51zm10.13 9.21l0 36.09 7.51 0c2.81,0 4.83,-0.18 6.08,-0.52 1.64,-0.45 2.99,-1.21 4.06,-2.27 1.08,-1.06 1.95,-2.82 2.63,-5.25 0.69,-2.44 1.03,-5.77 1.03,-9.99 0,-4.21 -0.34,-7.44 -1.03,-9.69 -0.68,-2.26 -1.63,-4.01 -2.85,-5.28 -1.23,-1.26 -2.77,-2.12 -4.66,-2.56 -1.4,-0.34 -4.16,-0.52 -8.26,-0.52l-4.52 0zm40.33 45.3l0 -54.51 37.03 0 0 9.21 -26.9 0 0 12.11 25.02 0 0 9.22 -25.02 0 0 14.77 27.88 0 0 9.21 -38.01 0zm88.38 0l-9.57 0 0 -39.47c-3.49,3.58 -7.61,6.23 -12.37,7.94l0 -9.52c2.5,-0.89 5.22,-2.58 8.14,-5.08 2.93,-2.49 4.94,-5.39 6.03,-8.71l7.77 0 0 54.82zm14.69 -12.66l9.29 -1.12c0.22,2.07 0.82,3.61 1.76,4.59 0.95,1 2.2,1.5 3.75,1.5 1.97,0 3.63,-1 5.01,-2.99 1.37,-2 2.25,-6.13 2.63,-12.39 -2.41,3.04 -5.42,4.57 -9.04,4.57 -3.93,0 -7.32,-1.65 -10.18,-4.96 -2.85,-3.31 -4.27,-7.61 -4.27,-12.92 0,-5.53 1.5,-9.99 4.52,-13.36 3.02,-3.39 6.86,-5.08 11.52,-5.08 5.06,0 9.23,2.15 12.48,6.42 3.25,4.29 4.88,11.33 4.88,21.16 0,9.97 -1.68,17.18 -5.06,21.6 -3.38,4.43 -7.78,6.64 -13.21,6.64 -3.9,0 -7.05,-1.14 -9.46,-3.43 -2.4,-2.27 -3.95,-5.68 -4.62,-10.23zm21.59 -22.87c0,-3.36 -0.71,-5.98 -2.13,-7.83 -1.41,-1.85 -3.05,-2.78 -4.91,-2.78 -1.77,0 -3.24,0.76 -4.4,2.28 -1.18,1.52 -1.76,4.01 -1.76,7.46 0,3.52 0.64,6.09 1.91,7.74 1.27,1.64 2.85,2.46 4.77,2.46 1.84,0 3.39,-0.79 4.64,-2.37 1.26,-1.59 1.89,-3.91 1.89,-6.97zm17.27 22.87l9.29 -1.12c0.22,2.07 0.82,3.61 1.76,4.59 0.94,1 2.2,1.5 3.75,1.5 1.97,0 3.63,-1 5.01,-2.99 1.37,-2 2.25,-6.13 2.63,-12.39 -2.41,3.04 -5.41,4.57 -9.03,4.57 -3.93,0 -7.33,-1.65 -10.18,-4.96 -2.85,-3.31 -4.28,-7.61 -4.28,-12.92 0,-5.53 1.5,-9.99 4.52,-13.36 3.02,-3.39 6.86,-5.08 11.52,-5.08 5.07,0 9.23,2.15 12.49,6.42 3.25,4.29 4.88,11.33 4.88,21.16 0,9.97 -1.69,17.18 -5.06,21.6 -3.38,4.43 -7.78,6.64 -13.21,6.64 -3.9,0 -7.05,-1.14 -9.46,-3.43 -2.4,-2.27 -3.95,-5.68 -4.63,-10.23zm21.59 -22.87c0,-3.36 -0.71,-5.98 -2.13,-7.83 -1.41,-1.85 -3.05,-2.78 -4.91,-2.78 -1.77,0 -3.24,0.76 -4.4,2.28 -1.17,1.52 -1.76,4.01 -1.76,7.46 0,3.52 0.64,6.09 1.91,7.74 1.27,1.64 2.85,2.46 4.76,2.46 1.84,0 3.39,-0.79 4.65,-2.37 1.26,-1.59 1.88,-3.91 1.88,-6.97zm17.06 21.54l9.57 -1.08c0.28,2.36 1.08,4.24 2.42,5.62 1.35,1.38 2.9,2.07 4.66,2.07 2,0 3.7,-0.89 5.09,-2.68 1.38,-1.79 2.08,-4.48 2.08,-8.07 0,-3.37 -0.69,-5.9 -2.07,-7.59 -1.37,-1.69 -3.17,-2.52 -5.38,-2.52 -2.76,0 -5.24,1.32 -7.43,3.96l-7.75 -1.22 4.89 -28.32 25.36 0 0 9.74 -18.08 0 -1.52 9.28c2.13,-1.16 4.32,-1.74 6.56,-1.74 4.26,0 7.87,1.69 10.83,5.08 2.97,3.38 4.45,7.77 4.45,13.17 0,4.51 -1.2,8.52 -3.59,12.06 -3.26,4.82 -7.78,7.23 -13.55,7.23 -4.63,0 -8.4,-1.36 -11.31,-4.06 -2.92,-2.72 -4.66,-6.35 -5.23,-10.93z"/>
   </g>
  </g>
 </g>
</svg>
