<?xml version="1.0" encoding="UTF-8"?>
<svg id="a" data-name="availiacao" xmlns="http://www.w3.org/2000/svg" viewBox="0 0 989.86 1001">
  <defs>
    <style>
      .b {
        fill: #currentColor;
      }
    </style>
  </defs>
  <path class="b" d="M824.69,119.03H163.51c-39.24,0-71.06,31.81-71.06,71.06v739.35c0,39.25,31.82,71.06,71.06,71.06h661.18c39.24,0,71.06-31.81,71.06-71.06V190.09c0-39.25-31.82-71.06-71.06-71.06ZM818.34,894.29c0,16.43-13.32,29.74-29.74,29.74H198.66c-16.42,0-29.74-13.31-29.74-29.74V225.18c0-16.43,13.32-29.74,29.74-29.74h589.94c16.42,0,29.74,13.31,29.74,29.74v669.11Z"/>
  <path class="b" d="M494.1,575.65s157.03-69.26,164.28-155.07c5.93-70.24-37.56-97.2-56.16-106.39-25.98-12.83-82.38-10.76-108.12,38.5-25.74-49.26-82.14-51.33-108.12-38.5-18.6,9.19-62.1,36.15-56.16,106.39,7.25,85.8,164.28,155.07,164.28,155.07"/>
  <rect class="b" x="415.86" y="635.03" width="299.29" height="75.88" rx="37.94" ry="37.94"/>
  <rect class="b" x="415.86" y="791.71" width="299.29" height="75.88" rx="37.94" ry="37.94"/>
  <rect class="b" x="273.98" y="635.03" width="101.65" height="75.88" rx="37.94" ry="37.94" transform="translate(649.61 1345.94) rotate(-180)"/>
  <rect class="b" x="273.98" y="791.71" width="101.65" height="75.88" rx="37.94" ry="37.94" transform="translate(649.61 1659.3) rotate(180)"/>
  <rect class="b" x="286.57" y="84.79" width="415.06" height="145.41" rx="39.18" ry="39.18"/>
  <rect class="b" x="383.63" y="4.56" width="220.94" height="106.59" rx="37.76" ry="37.76"/>
</svg>