<?xml version="1.0" encoding="UTF-8"?>
<svg id="a" data-name="feed" xmlns="http://www.w3.org/2000/svg" viewBox="0 0 989.86 1001">
  <defs>
    <style>
      .b {
        fill: #currentColor;
      }
    </style>
  </defs>
  <path class="b" d="M768.48,274.03c-43.54,0-78.85-33.07-78.85-73.85V6.6h-431.91c-29.49,0-53.38,22.39-53.38,50v936.23h717.44c29.47,0,53.38-22.39,53.38-50V274.03h-206.68ZM562.22,869.8c0,20.21-16.39,36.6-36.6,36.6h-151.86c-20.21,0-36.6-16.39-36.6-36.6v-7.07c0-20.21,16.39-36.6,36.6-36.6h151.86c20.21,0,36.6,16.39,36.6,36.6v7.07ZM737.98,710.24c0,20.21-16.39,36.6-36.6,36.6h-325.87c-20.21,0-36.6-16.39-36.6-36.6v-7.06c0-20.21,16.39-36.6,36.6-36.6h325.87c20.21,0,36.6,16.39,36.6,36.6v7.06ZM844.09,550.69c0,20.21-16.39,36.6-36.6,36.6h-433.73c-20.21,0-36.6-16.39-36.6-36.6v-145.47c0-20.21,16.39-36.6,36.6-36.6h433.73c20.21,0,36.6,16.39,36.6,36.6v145.47Z"/>
  <path class="b" d="M63.04,203.97h102.24v788.85H63.04c-27.6,0-50-22.4-50-50V253.97c0-27.6,22.4-50,50-50Z"/>
  <path class="b" d="M725.73,6.6v174.93c0,36.86,29.88,66.74,66.74,66.74h174.93L725.73,6.6Z"/>
</svg>