<?xml version="1.0" encoding="UTF-8"?>
<svg id="a" data-name="Layer 6" xmlns="http://www.w3.org/2000/svg" viewBox="0 0 989.86 1001">
  <defs>
    <style>
      .b {
        fill: #1f1e1e;
      }
    </style>
  </defs>
  <path class="b" d="M963.73,605.63c-41.74-16.65-71.23-57.44-71.23-105.13s29.49-88.48,71.23-105.13c16.67-6.65,25.44-25.09,20.25-42.28-9.82-32.54-22.82-63.71-38.63-93.14-8.48-15.79-27.7-22.59-44.16-15.52-41.29,17.74-90.98,9.74-124.69-23.98-33.71-33.7-41.71-83.4-23.98-124.68,7.07-16.47.27-35.69-15.51-44.17-29.44-15.81-60.6-28.8-93.15-38.63-17.18-5.18-35.62,3.58-42.27,20.26-16.65,41.73-57.45,71.23-105.14,71.23s-88.48-29.5-105.13-71.23c-6.65-16.68-25.09-25.44-42.27-20.26-32.55,9.83-63.71,22.82-93.15,38.63-15.78,8.48-22.58,27.7-15.51,44.17,17.73,41.28,9.73,90.98-23.98,124.68-33.71,33.72-83.4,41.71-124.69,23.98-16.57-7.11-35.78-.11-44.31,15.79-18.63,34.73-33.34,71.88-43.55,110.85-4.43,16.89,4.53,34.24,20.64,40.98,40.84,17.08,69.52,57.4,69.52,104.43s-25.87,83.27-63.43,101.67c-15.57,7.63-23.21,25.59-17.78,42.05,9.26,28.07,20.9,55.05,34.67,80.72,8.51,15.84,27.73,22.74,44.25,15.65,41.28-17.73,90.98-9.74,124.68,23.98,33.71,33.7,41.71,83.4,23.98,124.68-7.07,16.47-.27,35.69,15.51,44.17,29.44,15.81,60.6,28.8,93.15,38.63,17.18,5.18,35.62-3.58,42.27-20.26,16.65-41.73,57.45-71.23,105.13-71.23s88.49,29.5,105.14,71.23c6.65,16.68,25.09,25.44,42.27,20.26,32.55-9.83,63.71-22.82,93.15-38.63,15.78-8.48,22.58-27.7,15.51-44.17-17.73-41.28-9.73-90.98,23.98-124.68,33.71-33.72,83.4-41.72,124.69-23.98,16.46,7.07,35.68.27,44.16-15.52,15.81-29.43,28.81-60.6,38.63-93.14,5.19-17.19-3.58-35.63-20.25-42.28ZM494.1,700.5c-110.46,0-200-89.54-200-200s89.54-200,200-200,200,89.54,200,200-89.54,200-200,200Z"/>
</svg>