<?xml version="1.0" encoding="UTF-8"?>
<svg xmlns="http://www.w3.org/2000/svg" viewBox="0 0 825.2 542.49">
  <defs>
    <style>
      .e {
        fill: #fff;
      }

      .f {
        fill: #ec2f39;
      }
    </style>
  </defs>
  <g id="a" data-name="var-leterring">
    <g>
      <path class="e" d="M295.65,89.29h-3.36c-.86-16.63-3.83-20.33-12.82-20.33h-11.73v37.67h4.85c6.18,0,7.27-1,7.82-15.64h3.36c-.16,7.96-.31,14.64-.31,19.9,0,5.54.16,12.51.31,20.9h-3.36c-.31-14.36-1.88-18.34-7.82-18.34h-4.85v43.78h14.15c9.62,0,12.59-4.55,13.6-23.88h3.36c-.39,10.23-.7,20.47-.94,30.7h-49.8v-6.68c5.79,0,6.65-1.71,6.65-12.37v-63.97c0-10.52-.78-12.23-6.65-12.37v-6.68h10.63c11.65,0,23.69-.14,36.04-.57.16,8.67.39,17.91.86,27.86Z"/>
      <path class="e" d="M343.03,63.28h2.97c-.16,6.4-.16,10.95-.16,14.07,0,4.83.08,10.23.16,16.49h-3.21c-.86-16.63-6.1-26.01-13.84-26.01-5.94,0-9.62,6.68-9.62,15.92,0,10.8,3.99,13.65,11.1,18.48,11.73,7.82,18.14,13.65,18.14,32.69,0,17.91-7.66,30.42-20.8,30.42-6.65,0-12.04-3.55-16.81-11.23l-.94,7.82h-2.89c.08-7.96.16-14.07.16-18.34,0-2.56-.08-8.1-.16-16.35h3.36c.7,19.76,7.12,31.27,16.18,31.27,5.94,0,9.3-6.11,9.3-15.64s-3.05-13.5-9.54-17.91c-4.53-3.13-9.23-5.54-13.21-10.8-4.38-5.83-6.41-12.94-6.41-22.89,0-18.62,7.51-30.56,20.48-30.56,5.79,0,10.87,2.99,15.09,8.67l.63-6.11Z"/>
      <path class="e" d="M404.4,64.56h3.13c-.16,7.11-.23,13.5-.23,18.91,0,4.12.08,9.95.16,17.63h-3.21c-.86-21.75-6.88-33.26-16.42-33.26-11.1,0-16.26,14.78-16.26,45.06,0,28.71,5.86,43.64,16.81,43.64,8.76,0,14.54-8.1,16.42-22.74h3.52c-1.8,20.61-9.54,31.56-22.75,31.56-16.58,0-28.15-20.47-28.15-51.17s11.73-53.45,29.01-53.45c7.04,0,13.45,4.26,17.44,10.95l.55-7.11Z"/>
      <path class="e" d="M463.9,73.94c5.86,9.52,8.99,22.74,8.99,39.09s-3.36,29.85-9.38,39.38c-5.39,8.39-12.2,12.94-19.55,12.94s-14.31-4.55-19.62-13.08c-5.94-9.52-9.07-22.89-9.07-39.23s3.28-29.85,9.3-39.23c5.47-8.67,12.2-13.08,19.62-13.08s14.23,4.41,19.7,13.22ZM429.34,113.03c0,29.28,5.63,45.49,14.93,45.49s14.54-16.21,14.54-45.49-5.63-45.35-14.85-45.35-14.62,16.06-14.62,45.35Z"/>
      <path class="e" d="M492.12,62.99c3.21,0,7.82-.43,13.76-1v6.68h-.7c-6.02,0-6.8,1.99-6.8,12.37v75.06h11.18c10.09,0,12.9-6.68,13.92-26.87h3.44c-.39,11.8-.94,23.6-1.8,35.4-12.35-.57-20.33-.85-24-.85-7.43,0-14.93,0-22.36.28v-6.68c5.79,0,6.65-1.71,6.65-12.37v-63.97c0-10.52-.78-12.23-6.65-12.37v-6.68c6.1.57,10.55,1,13.37,1Z"/>
      <path class="e" d="M557.48,60.72l18.06,89.41c1.17,5.69,2.5,7.11,6.18,7.25v6.68c-5.55-.43-9.77-.71-12.59-.71s-7.19.28-12.98.71v-6.68c3.75-.43,5.4-1.14,5.4-4.83,0-1.28,0-2.27-.16-2.99l-3.99-21.04h-16.18l-3.44,17.63c-.47,2.56-.86,4.55-.86,6.54,0,3.55,1.33,4.41,4.77,4.69v6.68c-3.44-.43-6.02-.71-7.74-.71s-4.14.28-7.51.71v-6.68c3.99-.14,4.77-2.13,5.94-7.96l18.22-88.7h6.88ZM542.47,121.56h13.6l-6.65-35.68-6.96,35.68Z"/>
    </g>
    <g>
      <path class="e" d="M259.09,317.58c14.29,0,22.88-.88,25.91-.88,20.22,0,30.39,12.35,30.39,38.59,0,23.38-7.87,36.17-23.73,38.81,18.04,1.99,27.36,15.88,27.36,38.81,0,30.88-11.14,42.12-33.78,42.12-7.75,0-16.1-.88-24.94-.88-6.05,0-12.11.44-18.28.88v-10.37c8.96,0,10.29-2.65,10.29-19.19v-99.24c0-16.32-1.21-18.97-10.29-19.19v-10.36c5.57.66,11.26.88,17.07.88ZM272.04,389.04h7.14c11.14,0,15.98-7.94,15.98-31.1,0-24.48-5.33-30.21-17.07-30.21h-6.05v61.31ZM272.04,464.02h7.39c13.56,0,18.28-7.72,18.28-33.96,0-22.94-5.57-30.43-17.8-30.43h-7.87v64.4Z"/>
      <path class="e" d="M404.26,335.23c9.08,14.78,13.92,35.29,13.92,60.65s-5.21,46.31-14.53,61.09c-8.35,13.01-18.89,20.07-30.27,20.07s-22.16-7.06-30.39-20.29c-9.2-14.78-14.04-35.51-14.04-60.87s5.09-46.31,14.41-60.87c8.48-13.45,18.89-20.29,30.39-20.29s22.04,6.84,30.51,20.51ZM350.75,395.87c0,45.43,8.72,70.57,23.13,70.57s22.52-25.14,22.52-70.57-8.72-70.35-23-70.35-22.64,24.92-22.64,70.35Z"/>
      <path class="e" d="M439.14,318.02c4.84,0,11.5-.66,20.22-1.32v10.36c-5.09,0-7.39,1.54-7.39,7.06,0,2.21.48,4.41,1.45,7.28l11.62,34.62,13.8-36.83c.85-2.43,1.33-4.63,1.33-6.62,0-3.97-2.18-5.51-7.14-5.51v-10.36c5.33.66,10.05,1.1,14.17,1.1,2.3,0,6.42-.44,12.23-1.1v10.36h-.6c-5.93,0-8.72,3.09-12.23,12.13l-18.16,46.09,23.97,66.6c3.15,8.6,5.45,12.79,9.2,12.79h.61v10.37c-9.44-.66-15.86-1.1-19.01-1.1-5.45,0-12.59.44-21.67,1.1v-10.37c5.69-.44,8.35-1.54,8.35-6.84,0-2.21-.48-4.85-1.45-7.72l-14.29-41.24-15.26,40.36c-1.45,3.75-2.06,6.84-2.06,8.82,0,3.75,2.06,6.62,5.93,6.62h1.21v10.37c-5.81-.66-10.53-.88-14.17-.88-2.18,0-6.17.22-12.23.88v-10.37h.48c6.54,0,8.96-5.07,12.71-14.56l19.86-50.72-20.71-58.66c-3.27-9.04-5.57-13.67-10.17-13.67h-.61v-10.36c8.96.66,15.5,1.32,19.98,1.32Z"/>
      <path class="e" d="M580.2,359.04h-5.21c-1.33-25.8-5.93-31.54-19.86-31.54h-18.16v58.44h7.51c9.56,0,11.26-1.54,12.11-24.26h5.21c-.24,12.35-.48,22.72-.48,30.88,0,8.6.24,19.41.48,32.42h-5.21c-.48-22.27-2.91-28.45-12.11-28.45h-7.51v67.92h21.92c14.89,0,19.49-7.06,21.07-37.05h5.21c-.61,15.88-1.09,31.76-1.45,47.64h-77.13v-10.37c8.96,0,10.29-2.65,10.29-19.19v-99.24c0-16.32-1.21-18.97-10.29-19.19v-10.36h16.47c18.04,0,36.69-.22,55.82-.88.24,13.45.61,27.79,1.33,43.22Z"/>
    </g>
    <g>
      <path class="e" d="M232.88,541.66v-48.92h15.54c3.85,0,6.93.37,9.23,1.09,3.26,1.02,5.95,2.94,8.05,5.77,3.51,4.71,5.26,10.49,5.26,17.34s-1.65,12.98-4.94,17.44c-2.11,2.85-4.65,4.84-7.64,5.97-2.32.86-5.27,1.29-8.86,1.29h-16.65ZM241,533.77h7.66c4.93,0,8.36-1.13,10.28-3.38,2.43-2.85,3.65-7.13,3.65-12.83,0-5.99-1.15-10.35-3.45-13.07-2.15-2.56-5.48-3.85-9.99-3.85h-8.15v33.13Z"/>
      <path class="e" d="M278.6,541.66v-48.92h28.76v7.43h-20.86v12.07h19.17v7.46h-19.17v14.36h21.57v7.59h-29.47Z"/>
      <path class="e" d="M312.75,526.44l7.47.03c.02,3.05,1.13,5.27,3.35,6.67,1.63,1.02,3.72,1.53,6.27,1.53,2.28,0,4.21-.41,5.78-1.22,2.24-1.17,3.35-3.04,3.35-5.63,0-2.82-2.59-4.8-7.76-5.92-1.09-.25-1.92-.45-2.47-.58-4.81-1.17-8.18-2.44-10.09-3.81-3.36-2.41-5.04-6.15-5.04-11.21s1.84-9.09,5.53-11.54c2.79-1.86,6.34-2.79,10.65-2.79s7.65.92,10.28,2.75c3.38,2.39,5.11,6.18,5.19,11.38h-7.34c-.13-2.3-1.12-4.04-2.96-5.21-1.44-.88-3.13-1.33-5.07-1.33-5.84,0-8.76,2.22-8.76,6.67,0,2.65,3.1,4.69,9.3,6.1.77.18,1.84.43,3.23.76,4.02.97,6.94,2.17,8.76,3.58,2.87,2.23,4.31,5.56,4.31,9.98,0,5.79-1.9,10.04-5.7,12.73-2.94,2.08-6.76,3.12-11.48,3.12s-8.38-1.02-11.24-3.05c-3.7-2.63-5.56-6.8-5.56-12.5v-.5Z"/>
      <path class="e" d="M354.05,541.66v-48.92h15.54c3.85,0,6.93.37,9.23,1.09,3.26,1.02,5.95,2.94,8.05,5.77,3.51,4.71,5.26,10.49,5.26,17.34s-1.65,12.98-4.94,17.44c-2.11,2.85-4.65,4.84-7.64,5.97-2.32.86-5.27,1.29-8.86,1.29h-16.65ZM362.18,533.77h7.66c4.93,0,8.36-1.13,10.28-3.38,2.43-2.85,3.65-7.13,3.65-12.83,0-5.99-1.15-10.35-3.45-13.07-2.15-2.56-5.48-3.85-9.99-3.85h-8.15v33.13Z"/>
      <path class="e" d="M399.78,541.66v-48.92h28.76v7.43h-20.86v12.07h19.17v7.46h-19.17v14.36h21.57v7.59h-29.47Z"/>
      <path class="e" d="M475.01,541.66h-7.76v-36.35c-2.6,2.41-5.86,4.31-9.79,5.7v-9.15c3.85-2.03,7.48-4.54,10.89-7.53h6.66v47.32Z"/>
      <path class="e" d="M489.87,529.72h9.03c.2,3.89,2.21,5.84,6.05,5.84,5.42,0,8.13-4.26,8.13-12.77v-.83c-2.79,2.54-6.25,3.81-10.38,3.81s-7.35-1.18-9.77-3.55c-2.77-2.7-4.16-6.7-4.16-12,0-5.81,1.71-10.17,5.14-13.07,2.84-2.39,6.55-3.58,11.14-3.58,5.53,0,9.73,2.23,12.58,6.7,2.68,4.2,4.01,10.11,4.01,17.74,0,16.32-5.87,24.47-17.6,24.47-8.65,0-13.38-4.26-14.17-12.77ZM512.93,509.72c0-2.94-.79-5.17-2.37-6.7-1.39-1.33-3.21-1.99-5.46-1.99s-4.05.63-5.39,1.89c-1.55,1.46-2.33,3.64-2.33,6.53s.74,5.24,2.23,6.83c1.35,1.48,3.15,2.22,5.39,2.22s4.05-.7,5.48-2.09c1.63-1.57,2.45-3.8,2.45-6.7Z"/>
      <path class="e" d="M527.03,529.72h9.03c.2,3.89,2.21,5.84,6.05,5.84,5.42,0,8.13-4.26,8.13-12.77v-.83c-2.79,2.54-6.25,3.81-10.38,3.81s-7.35-1.18-9.77-3.55c-2.77-2.7-4.16-6.7-4.16-12,0-5.81,1.71-10.17,5.14-13.07,2.84-2.39,6.55-3.58,11.14-3.58,5.53,0,9.73,2.23,12.58,6.7,2.68,4.2,4.01,10.11,4.01,17.74,0,16.32-5.87,24.47-17.6,24.47-8.65,0-13.38-4.26-14.17-12.77ZM550.09,509.72c0-2.94-.79-5.17-2.37-6.7-1.39-1.33-3.21-1.99-5.46-1.99s-4.05.63-5.39,1.89c-1.55,1.46-2.33,3.64-2.33,6.53s.74,5.24,2.23,6.83c1.35,1.48,3.15,2.22,5.39,2.22s4.05-.7,5.48-2.09c1.63-1.57,2.45-3.8,2.45-6.7Z"/>
      <path class="e" d="M572.88,522.49h-7.81l1-28.16h26.46v7.26h-18.51l-.64,13.5c2.66-3.07,5.96-4.61,9.91-4.61,3.71,0,6.64,1.37,8.81,4.11,2.25,2.83,3.38,6.73,3.38,11.71,0,5.84-1.66,10.13-4.99,12.87-2.71,2.21-6.37,3.32-10.99,3.32-10.13,0-15.2-4.71-15.2-14.13v-.17h7.83c.23,4.62,2.6,6.93,7.1,6.93,5.16,0,7.74-2.92,7.74-8.75,0-2.74-.64-4.91-1.91-6.5-1.27-1.59-2.93-2.39-4.97-2.39-3.54,0-5.95,1.67-7.22,5.01Z"/>
    </g>
    <g>
      <path class="e" d="M372.69,198.31c6.65,0,12.37-.52,17.09-.52,17.52,0,27.74,17.81,27.74,46.93s-9.37,46.41-27.31,46.41c-4.29,0-9.37-.65-15.09-.65-2.72,0-6.22.13-10.37.65v-6.11c5.29,0,6.08-1.56,6.08-11.31v-58.5c0-9.62-.71-11.18-6.08-11.31v-6.11c2.57.39,5.22.52,7.94.52ZM382.7,284.9h4.29c12.3,0,17.66-10.66,17.66-40.69s-5.65-40.04-18.45-40.04h-3.5v80.73Z"/>
      <path class="e" d="M466.36,222.75h-3.08c-.79-15.21-3.5-18.59-11.73-18.59h-10.73v34.45h4.43c5.65,0,6.65-.91,7.15-14.3h3.08c-.14,7.28-.29,13.39-.29,18.2,0,5.07.14,11.44.29,19.11h-3.08c-.29-13.13-1.72-16.77-7.15-16.77h-4.43v40.04h12.94c8.79,0,11.51-4.16,12.44-21.84h3.08c-.36,9.36-.64,18.72-.86,28.08h-45.55v-6.11c5.29,0,6.08-1.56,6.08-11.31v-58.5c0-9.62-.71-11.18-6.08-11.31v-6.11h9.72c10.65,0,21.67-.13,32.96-.52.14,7.93.36,16.38.79,25.48Z"/>
    </g>
  </g>
  <g id="b" data-name="red-bars">
    <rect class="f" x="179.39" y="241.39" width="167.29" height="14.12"/>
    <rect class="f" x="206.92" y="222.33" width="139.76" height="8.47"/>
    <rect class="f" x="479.39" y="241.39" width="167.29" height="14.12" transform="translate(1126.08 496.9) rotate(-180)"/>
    <rect class="f" x="479.39" y="222.33" width="139.76" height="8.47" transform="translate(1098.55 453.13) rotate(-180)"/>
  </g>
  <g id="c" data-name="red-stars">
    <polygon class="f" points="413.04 34.67 421.36 45.39 418.18 28.05 426.51 17.34 416.22 17.34 413.04 0 409.86 17.34 399.57 17.34 407.89 28.05 404.71 45.39 413.04 34.67"/>
    <polygon class="f" points="373.04 34.67 381.36 45.39 378.18 28.05 386.51 17.34 376.22 17.34 373.04 0 369.86 17.34 359.57 17.34 367.89 28.05 364.71 45.39 373.04 34.67"/>
    <polygon class="f" points="453.04 34.67 461.36 45.39 458.18 28.05 466.51 17.34 456.22 17.34 453.04 0 449.86 17.34 439.57 17.34 447.89 28.05 444.71 45.39 453.04 34.67"/>
  </g>
  <g id="d" data-name="red-guys">
    <ellipse class="f" cx="121.94" cy="98.8" rx="27.06" ry="32.35"/>
    <path class="f" d="M1.35,464.86c-1.78,1.08-1.6-.59-.59-2.44,6.27-10.6,12.94-20.62,19.39-31.16,21.52-33.15,41.43-70.55,38.77-111.19-.78-12.05-3.27-23.71-5.09-35.64-1.53-12.41-6.78-25.97-1.01-38,1.69-3.36,4-5.92,7.27-6.89,20.09-5.11,27.05,39.92,29.18,53.94,2.58,20.42,1.99,41.41-3.84,61.46-1.63,5.49-3.47,10.76-5.93,15.86-3.54,7.36-7.89,17.21-12.98,24.24-7.5,10.17-15.58,19.96-24.41,28.68-12.9,12.88-28.13,29.32-40.69,41.08l-.07.05Z"/>
    <ellipse class="f" cx="204.2" cy="151.12" rx="18" ry="28.24"/>
    <ellipse class="f" cx="185.32" cy="138.68" rx="18" ry="28.24"/>
    <path class="f" d="M206.32,177.59s-3.21,12.39-7.47,22.85c-2.23,5.48-5.33,9.94-7.18,12.88-3.88,6.18-13.41,12.35-24.35,12.62-13.41.32-20.6-5.35-24.47-7.97-10.53-7.12-17-16.88-21.94-28.21-3.89-8.91-3.88-17.47-3.71-22.85s4.85-11.65,8.03-12.53,15.26-.26,19.68,16.5,14.82,32.12,22.41,32.21c7.08.08,11.69-2.66,18.88-14.74s8.82-17.82,8.82-17.82l11.29,7.06Z"/>
    <path class="f" d="M73.85,161.92s8.06,13.35,10.29,16.18,11.26,12.86,13.82,15.12c3.41,3,11.11,8.33,13.46,9.5s6.24,3.38,10.04,3.94c4.66.69,12.91.18,17.68-1.09s16.47-8,19.53-10.59,8.94-8.12,11.76-12.12,10.47-15.65,11.29-18-5.88-9.76-6.94-8.24-9.3,9.75-13.06,12.35c-4.59,3.17-9.21,6.88-13.65,8.24-4.95,1.51-12.99,4.47-20.26,2.82s-9.86-4.71-13.15-8.59-8.11-10.59-11.29-16.59c-1.94-3.65-10.53-19.53-14.82-24.59-2.96-3.49-6.35-5.65-10.47-5.06s-7.76,4.24-8.71,8.35-1.88,13.41,0,18.82,4.47,9.53,4.47,9.53Z"/>
    <path class="f" d="M161.74,333.79c-5.8-31.96-23.91-65.9-52.75-82.31-8.99-5.05-20.56-5.35-22.83,6.99-1.95,8.57,2.8,16.52,8.56,22.5,6.54,7.11,13.34,14.33,19.83,21.55,11.49,12.51,20.85,26.91,25.86,43.13,6.56,23.22,8.76,47.62,10.73,71.73,1.11,15.54.67,32,1.76,47.31,7.48-39.23,13.8-88.62,8.87-130.7l-.03-.19Z"/>
    <ellipse class="f" cx="703.26" cy="98.8" rx="27.06" ry="32.35"/>
    <path class="f" d="M823.85,464.86c1.78,1.08,1.6-.59.59-2.44-6.27-10.6-12.94-20.62-19.39-31.16-21.52-33.15-41.43-70.55-38.77-111.19.78-12.05,3.27-23.71,5.09-35.64,1.53-12.41,6.78-25.97,1.01-38-1.69-3.36-4-5.92-7.27-6.89-20.09-5.11-27.05,39.92-29.18,53.94-2.58,20.42-1.99,41.41,3.84,61.46,1.63,5.49,3.47,10.76,5.93,15.86,3.54,7.36,7.89,17.21,12.98,24.24,7.5,10.17,15.58,19.96,24.41,28.68,12.9,12.88,28.13,29.32,40.69,41.08l.07.05Z"/>
    <ellipse class="f" cx="621" cy="151.12" rx="18" ry="28.24"/>
    <ellipse class="f" cx="639.88" cy="138.68" rx="18" ry="28.24"/>
    <path class="f" d="M618.88,177.59s3.21,12.39,7.47,22.85c2.23,5.48,5.33,9.94,7.18,12.88,3.88,6.18,13.41,12.35,24.35,12.62,13.41.32,20.6-5.35,24.47-7.97,10.53-7.12,17-16.88,21.94-28.21,3.89-8.91,3.88-17.47,3.71-22.85s-4.85-11.65-8.03-12.53-15.26-.26-19.68,16.5c-4.41,16.76-14.82,32.12-22.41,32.21-7.08.08-11.69-2.66-18.88-14.74-7.15-12-8.82-17.82-8.82-17.82l-11.29,7.06Z"/>
    <path class="f" d="M751.35,161.92s-8.06,13.35-10.29,16.18-11.26,12.86-13.82,15.12c-3.41,3-11.11,8.33-13.46,9.5s-6.24,3.38-10.04,3.94c-4.66.69-12.91.18-17.68-1.09s-16.47-8-19.53-10.59-8.94-8.12-11.76-12.12-10.47-15.65-11.29-18,5.88-9.76,6.94-8.24,9.3,9.75,13.06,12.35c4.59,3.17,9.21,6.88,13.65,8.24,4.95,1.51,12.99,4.47,20.26,2.82s9.86-4.71,13.15-8.59,8.11-10.59,11.29-16.59c1.94-3.65,10.53-19.53,14.82-24.59,2.96-3.49,6.35-5.65,10.47-5.06s7.76,4.24,8.71,8.35c.94,4.12,1.88,13.41,0,18.82s-4.47,9.53-4.47,9.53Z"/>
    <path class="f" d="M663.47,333.79c5.8-31.96,23.91-65.9,52.75-82.31,8.99-5.05,20.56-5.35,22.83,6.99,1.95,8.57-2.8,16.52-8.56,22.5-6.54,7.11-13.34,14.33-19.83,21.55-11.49,12.51-20.85,26.91-25.86,43.13-6.56,23.22-8.76,47.62-10.73,71.73-1.11,15.54-.67,32-1.76,47.31-7.48-39.23-13.8-88.62-8.87-130.7l.03-.19Z"/>
  </g>
</svg>