<?xml version="1.0" encoding="UTF-8"?>
<svg id="matriculas" xmlns="http://www.w3.org/2000/svg" viewBox="0 0 989.86 1001">
  <defs>
    <style>
      .cls-1 {
        fill: #1f1d1d;
      }

      .cls-2 {
        fill: #1f1e1e;
      }
    </style>
  </defs>
  <rect class="cls-2" x="568.37" y="301.51" width="167.29" height="91.24" rx="21.85" ry="21.85" transform="translate(746.34 1079.75) rotate(-125.37)"/>
  <path class="cls-2" d="M558.79,334.39l74.5,104.95c6.17,8.69,1.45,22.63-10.53,31.13l-139.14,98.76c-4.95,3.51-10.62,5.69-16.08,6.18l-127.13,11.32c-15.26,1.36-23.71-10.56-17.4-24.51l52.63-116.27c2.26-4.99,6.19-9.62,11.14-13.14l139.14-98.76c11.98-8.51,26.7-8.36,32.87.33Z"/>
  <path class="cls-2" d="M824.69,119.03H163.51c-39.24,0-71.06,31.81-71.06,71.06v739.35c0,39.25,31.82,71.06,71.06,71.06h661.18c39.24,0,71.06-31.81,71.06-71.06V190.09c0-39.25-31.82-71.06-71.06-71.06ZM818.34,894.29c0,16.43-13.32,29.74-29.74,29.74H198.66c-16.42,0-29.74-13.31-29.74-29.74V225.18c0-16.43,13.32-29.74,29.74-29.74h589.94c16.42,0,29.74,13.31,29.74,29.74v669.11Z"/>
  <rect class="cls-1" x="415.86" y="635.03" width="299.29" height="75.88" rx="37.94" ry="37.94"/>
  <rect class="cls-1" x="415.86" y="791.71" width="299.29" height="75.88" rx="37.94" ry="37.94"/>
  <rect class="cls-1" x="273.98" y="635.03" width="101.65" height="75.88" rx="37.94" ry="37.94" transform="translate(649.61 1345.94) rotate(-180)"/>
  <rect class="cls-1" x="273.98" y="791.71" width="101.65" height="75.88" rx="37.94" ry="37.94" transform="translate(649.61 1659.3) rotate(180)"/>
  <rect class="cls-2" x="286.57" y="84.79" width="415.06" height="145.41" rx="39.18" ry="39.18"/>
  <rect class="cls-2" x="383.63" y="4.56" width="220.94" height="106.59" rx="37.76" ry="37.76"/>
</svg>