<?xml version="1.0" encoding="UTF-8"?>
<svg id="a" data-name="Layer 3" xmlns="http://www.w3.org/2000/svg" viewBox="0 0 989.86 1001">
  <defs>
    <style>
      .b {
        fill: #currentColor;
      }
    </style>
  </defs>
  <path class="b" d="M643.36,19c-82.47,70.97-310.73,298.52-322.76,326.59-14.31,33.4-64.41,380.08-64.41,380.08,0,0-50.25-61.87-55.51-66.82-24.62-28.23-50.91-11.8-39.06,26.35,18.74,71.89,69.12,215.78,84.63,236.07,20.67,27.03,178.11,114.5,348.27,63.61,165.69-49.55,270.94-159.29,227.91-388.19-2.61-15.52-26.13-19.49-36.43-4.52-27.97,44.32-32.42,48.42-32.42,48.42,0,0-106.58-220.26-122.48-326.81-5.08-34.02,53.19-209.24,58.14-282.08,2.12-31.21-28.24-29.12-45.88-12.71Z"/>
</svg>