<?xml version="1.0" encoding="UTF-8"?>
<svg id="a" data-name="Layer 7" xmlns="http://www.w3.org/2000/svg" viewBox="0 0 989.86 1001">
  <defs>
    <style>
      .b {
        fill: #4272b8;
      }
    </style>
  </defs>
  <path class="b" d="M494.1,11.32C223.94,11.32,4.92,230.34,4.92,500.5s219.02,489.18,489.18,489.18,489.18-219.02,489.18-489.18S764.26,11.32,494.1,11.32ZM793.76,311.5l-282.86,405.5c-11.65,16.71-30.3,26.54-49.21,25.65-13.85-.65-20.94-3.79-34.24-10.78-1.91-1-3.45-2.54-5.04-3.94l-219.95-153.43c-27.09-18.9-33.74-56.18-14.84-83.27,18.9-27.1,56.18-33.74,83.28-14.84l176.03,122.79,248.52-356.26c18.93-27.15,56.3-33.81,83.44-14.87,27.15,18.94,33.81,56.3,14.87,83.45Z"/>
</svg>