<?xml version="1.0" encoding="UTF-8"?>
<svg id="a" data-name="pagamentos" xmlns="http://www.w3.org/2000/svg" viewBox="0 0 989.58 1001">
  <defs>
    <style>
      .b {
        fill: #1f1e1e;
      }
    </style>
  </defs>
  <path class="b" d="M949.02,121.21H40.55c-22.4,0-40.55,18.15-40.55,40.55v676.83c0,22.4,18.15,40.56,40.55,40.56h908.47c22.4,0,40.56-18.16,40.56-40.56V161.76c0-22.4-18.16-40.55-40.56-40.55ZM75,236.59c0-22.3,18.08-40.38,40.38-40.38h758.82c22.3,0,40.38,18.08,40.38,40.38v51.77H75v-51.77ZM914.58,763.76c0,22.31-18.08,40.39-40.38,40.39H115.38c-22.3,0-40.38-18.08-40.38-40.39v-289.03h839.58v289.03Z"/>
  <rect class="b" x="289.99" y="356.19" width="75" height="446.84" rx="37.5" ry="37.5" transform="translate(-252.13 907.1) rotate(-90)"/>
  <rect class="b" x="180.93" y="594.26" width="75" height="228.72" rx="37.5" ry="37.5" transform="translate(-490.2 927.05) rotate(-90)"/>
  <rect class="b" x="694.41" y="578.49" width="142.89" height="196.95" rx="43.41" ry="43.41" transform="translate(88.88 1442.82) rotate(-90)"/>
</svg>