<?xml version="1.0" encoding="UTF-8"?>
<svg id="plan" xmlns="http://www.w3.org/2000/svg" viewBox="0 0 989.86 1001">
  <defs>
    <style>
      .cls-1 {
        fill: #currentColor;
      }

      .cls-2 {
        fill: #currentColor;
      }
    </style>
  </defs>
  <path class="cls-2" d="M824.69,10.24H163.51c-39.24,0-71.06,35.74-71.06,79.83v830.6c0,44.09,31.82,79.83,71.06,79.83h661.18c39.24,0,71.06-35.74,71.06-79.83V90.07c0-44.09-31.82-79.83-71.06-79.83ZM818.34,881.18c0,18.46-13.32,33.41-29.74,33.41H198.66c-16.42,0-29.74-14.95-29.74-33.41V129.49c0-18.46,13.32-33.41,29.74-33.41h589.94c16.42,0,29.74,14.95,29.74,33.41v751.69Z"/>
  <path class="cls-2" d="M467.09,501.29l-158.17-149.3c-12.86-12.13-16.04-31.35-7.79-46.99l45.7-86.58c6.81-12.91,20.21-20.98,34.8-20.98h112.46s112.46,0,112.46,0c14.59,0,27.99,8.08,34.8,20.98l45.7,86.58c8.25,15.63,5.07,34.85-7.79,46.99l-158.17,149.3c-15.16,14.31-38.86,14.31-54.02,0Z"/>
  <rect class="cls-1" x="294.07" y="597.09" width="400.06" height="75.88" rx="37.94" ry="37.94"/>
  <rect class="cls-1" x="293.6" y="766.3" width="400.06" height="75.88" rx="37.94" ry="37.94"/>
</svg>