<?xml version="1.0" encoding="UTF-8"?>
<svg id="platinum" xmlns="http://www.w3.org/2000/svg" viewBox="0 0 989.86 1000">
  <defs>
    <style>
      .cls-1 {
        fill: #ecf1f2;
      }

      .cls-2 {
        fill: #b7c8ce;
      }

      .cls-3 {
        fill: #cad8db;
      }

      .cls-4 {
        fill: #e5e5e5;
      }

      .cls-5 {
        fill: #8da1aa;
      }

      .cls-6 {
        fill: #a6b8bc;
      }
    </style>
  </defs>
  <path class="cls-5" d="M461.31,966.46L37.71,566.62c-15.6-14.73-19.47-38.05-9.45-57.03l134.66-255.1c8.27-15.66,24.53-25.46,42.24-25.46h288.94s288.94,0,288.94,0c17.71,0,33.97,9.8,42.24,25.46l134.66,255.1c10.02,18.97,6.15,42.3-9.45,57.03l-423.6,399.84c-18.4,17.37-47.16,17.37-65.57,0Z"/>
  <path class="cls-3" d="M461.31,966.46L162.92,254.5c8.27-15.66,24.53-25.46,42.24-25.46h288.94s288.94,0,288.94,0c17.71,0,33.97,9.8,42.24,25.46l134.66,255.1c10.02,18.97,6.15,42.3-9.45,57.03l-423.6,399.84c-18.4,17.37-47.16,17.37-65.57,0Z"/>
  <path class="cls-2" d="M461.31,966.46L162.92,254.5c8.27-15.66,24.53-25.46,42.24-25.46h288.94s288.94,0,288.94,0c17.71,0,33.97,9.8,42.24,25.46l-298.39,711.97c-18.4,17.37-47.16,17.37-65.57,0Z"/>
  <path class="cls-2" d="M28.26,509.59l134.66-255.1c8.27-15.66,24.53-25.46,42.24-25.46h288.94s288.94,0,288.94,0c17.71,0,33.97,9.8,42.24,25.46l134.66,255.1c-120.83,0-765.08,0-931.68,0Z"/>
  <path class="cls-6" d="M270,509.99s-180.9-.4-241.74-.4l134.66-255.1c23.12,58.5,84.77,202.97,107.08,255.5Z"/>
  <path class="cls-1" d="M825.28,254.5l134.66,255.1c-37.78,0-233.08.23-241.66.4,4.59-10.64,87.18-207.46,107-255.5Z"/>
  <polygon class="cls-4" points="494.1 229.03 270 509.99 718.27 509.99 494.1 229.03"/>
  <path class="cls-2" d="M249.92,168.15c0-38.32-31.07-69.39-69.41-69.39,38.35,0,69.41-31.09,69.41-69.41,0,38.32,31.07,69.41,69.41,69.41-38.35,0-69.41,31.07-69.41,69.39Z"/>
  <path class="cls-2" d="M839.11,219.2c0-38.32-31.07-69.39-69.41-69.39,38.35,0,69.41-31.09,69.41-69.41,0,38.32,31.07,69.41,69.41,69.41-38.35,0-69.41,31.07-69.41,69.39Z"/>
</svg>